# Rhino

mtllib london_border.mtl
usemtl Material_1
v -750 -31 -750
v -750 0 -750
v 750 0 -750
v 750 -31 -750
v 750 -31 750
v 750 0 750
v -750 0 750
v -750 -31 750
v 750 -9.6573991775512695 264.24954223632812
v 750 0 -750
v 750 0 264.24954223632812
v 750 -31 750
v 750 -31 -750
v 750 -9.6573991775512695 264.24954223632812
v 750 0 -750
v 750 -9.6573991775512695 264.24954223632812
v 750 -31 -750
v 750 -9.6573991775512695 519.17059326171875
v 750 0 519.17059326171875
v 750 0 750
v 750 -9.6573991775512695 264.24954223632812
v 750 -9.6573991775512695 519.17059326171875
v 750 -31 750
v 750 0 750
v 750 -31 750
v 750 -9.6573991775512695 519.17059326171875
v -750 -9.6573991775512695 199.27676391601562
v -750 0 750
v -750 0 199.27676391601562
v -750 -9.6573991775512695 -14.914390563964844
v -750 -31 750
v -750 -9.6573991775512695 199.27676391601562
v -750 0 750
v -750 -9.6573991775512695 199.27676391601562
v -750 -31 750
v -750 -9.6573991775512695 -14.914390563964844
v -750 0 -14.914390563964844
v -750 0 -750
v -750 -31 750
v -750 -9.6573991775512695 -14.914390563964844
v -750 -31 -750
v -750 0 -750
v -750 -31 -750
v -750 -9.6573991775512695 -14.914390563964844
v -750 -31 -750
v 750 -31 -750
v 750 -31 750
v -750 -31 750
vt 0 0
vt 0.017623826861381531 0
vt 0.017623826861381531 0.92218047380447388
vt 0 0.92218047380447388
vt 0.038177341222763062 0
vt 0.055801164358854294 0
vt 0.055801164358854294 0.92218047380447388
vt 0.038177341222763062 0.92218047380447388
vt 0.069399505853652954 0.62354743480682373
vt 0.074889838695526123 0
vt 0.074889838695526123 0.62354743480682373
vt 0.057266008108854294 0.92218047380447388
vt 0.057266008108854294 0
vt 0.069399505853652954 0.62354743480682373
vt 0.074889838695526123 0
vt 0.069399505853652954 0.62354743480682373
vt 0.057266008108854294 0
vt 0.069399505853652954 0.7802695631980896
vt 0.074889838695526123 0.7802695631980896
vt 0.074889838695526123 0.92218047380447388
vt 0.069399505853652954 0.62354743480682373
vt 0.069399505853652954 0.7802695631980896
vt 0.057266008108854294 0.92218047380447388
vt 0.074889838695526123 0.92218047380447388
vt 0.057266008108854294 0.92218047380447388
vt 0.069399505853652954 0.7802695631980896
vt 0.031222162768244743 0.33857747912406921
vt 0.036712497472763062 0
vt 0.036712497472763062 0.33857747912406921
vt 0.031222162768244743 0.47025942802429199
vt 0.019088670611381531 0
vt 0.031222162768244743 0.33857747912406921
vt 0.036712497472763062 0
vt 0.031222162768244743 0.33857747912406921
vt 0.019088670611381531 0
vt 0.031222162768244743 0.47025942802429199
vt 0.036712497472763062 0.47025942802429199
vt 0.036712497472763062 0.92218047380447388
vt 0.019088670611381531 0
vt 0.031222162768244743 0.47025942802429199
vt 0.019088670611381531 0.92218047380447388
vt 0.036712497472763062 0.92218047380447388
vt 0.019088670611381531 0.92218047380447388
vt 0.031222162768244743 0.47025942802429199
vt 0.076354682445526123 0
vt 0.076354682445526123 0.92218047380447388
vt 0.99853515625 0.92218047380447388
vt 0.99853515625 0
vn 0 0 -1
vn 0 0 -1
vn 0 0 -1
vn 0 0 -1
vn 0 0 1
vn 0 0 1
vn 0 0 1
vn 0 0 1
vn 1 0 0
vn 1 0 0
vn 1 0 0
vn 1 0 0
vn 1 0 0
vn 1 0 0
vn 1 0 0
vn 1 0 0
vn 1 0 0
vn 1 0 0
vn 1 0 0
vn 1 0 0
vn 1 0 0
vn 1 0 0
vn 1 0 0
vn 1 0 0
vn 1 0 0
vn 1 0 0
vn -1 0 0
vn -1 0 0
vn -1 0 0
vn -1 0 0
vn -1 0 0
vn -1 0 0
vn -1 0 0
vn -1 0 0
vn -1 0 0
vn -1 0 0
vn -1 0 0
vn -1 0 0
vn -1 0 0
vn -1 0 0
vn -1 0 0
vn -1 0 0
vn -1 0 0
vn -1 0 0
vn 0 -1 0
vn 0 -1 0
vn 0 -1 0
vn 0 -1 0
f 1/1/1 2/2/2 3/3/3 4/4/4
f 5/5/5 6/6/6 7/7/7 8/8/8
f 9/9/9 10/10/10 11/11/11
f 12/12/12 13/13/13 14/14/14
f 15/15/15 16/16/16 17/17/17
f 18/18/18 19/19/19 20/20/20
f 21/21/21 22/22/22 23/23/23
f 24/24/24 25/25/25 26/26/26
f 27/27/27 28/28/28 29/29/29
f 30/30/30 31/31/31 32/32/32
f 33/33/33 34/34/34 35/35/35
f 36/36/36 37/37/37 38/38/38
f 39/39/39 40/40/40 41/41/41
f 42/42/42 43/43/43 44/44/44
f 45/45/45 46/46/46 47/47/47 48/48/48
