# Rhino

mtllib newyork_border.mtl
usemtl Material_1
v -750 -31 -750
v -750 0 -750
v 750 0 -750
v 750 -31 -750
v 750 -31 750
v 750 0 750
v -750 0 750
v -750 -31 750
v -750 -31 750
v -750 0 750
v -750 0 -750
v -750 -31 -750
v 750 -31 -750
v 750 0 -750
v 750 0 750
v 750 -31 750
vt 0.020248204469680786 0.020248204469680786
vt 0.020248204469680786 0
vt 0.99853515625 0
vt 0.99853515625 0.020248204469680786
vt 0.020248204469680786 0.67341607809066772
vt 0.020248204469680786 0.65316784381866455
vt 0.99853515625 0.65316784381866455
vt 0.99853515625 0.67341607809066772
vt 0.020248204469680786 0.34683212637901306
vt 0.020248204469680786 0.32658392190933228
vt 0.99853515625 0.32658392190933228
vt 0.99853515625 0.34683212637901306
vt 0 0
vt 0.018783360719680786 0
vt 0.018783360719680786 0.9782869815826416
vt 0 0.9782869815826416
vn 0 0 -1
vn 0 0 -1
vn 0 0 -1
vn 0 0 -1
vn 0 0 1
vn 0 0 1
vn 0 0 1
vn 0 0 1
vn -1 0 0
vn -1 0 0
vn -1 0 0
vn -1 0 0
vn 1 0 0
vn 1 0 0
vn 1 0 0
vn 1 0 0
f 1/1/1 2/2/2 3/3/3 4/4/4
f 5/5/5 6/6/6 7/7/7 8/8/8
f 9/9/9 10/10/10 11/11/11 12/12/12
f 13/13/13 14/14/14 15/15/15 16/16/16
