# Rhino

mtllib parks_00237.mtl
usemtl diffuse_0
v -445.34249877929687 0 148.12059020996094
v -427.9532470703125 0 163.44400024414062
v -433.77154541015625 0 174.0140380859375
v -448.39419555664062 0 154.46206665039062
v -442.29083251953125 0 141.77909851074219
v -422.13494873046875 0 152.87396240234375
v -427.9532470703125 0 163.44400024414062
v -445.34249877929687 0 148.12059020996094
v -462.73175048828125 0 132.79716491699219
v -445.34249877929687 0 148.12059020996094
v -448.39419555664062 0 154.46206665039062
v -463.01681518554687 0 134.91009521484375
v -462.44668579101562 0 130.68424987792969
v -442.29083251953125 0 141.77909851074219
v -445.34249877929687 0 148.12059020996094
v -462.73175048828125 0 132.79716491699219
vt 0.5 0.5
vt 0 0.5
vt 0 0
vt 0.5 0
vt 0.5 1
vt 0 1
vt 0 0.5
vt 0.5 0.5
vt 1 0.5
vt 0.5 0.5
vt 0.5 0
vt 1 0
vt 1 1
vt 0.5 1
vt 0.5 0.5
vt 1 0.5
vn 0 -1 0
vn 0 -1 0
vn 0 -1 0
vn 0 -1 0
vn 0 -1 0
vn 0 -1 0
vn 0 -1 0
vn 0 -1 0
vn 0 -1 0
vn 0 -1 0
vn 0 -1 0
vn 0 -1 0
vn 0 -1 0
vn 0 -1 0
vn 0 -1 0
vn 0 -1 0
f 1/1/1 2/2/2 3/3/3 4/4/4
f 5/5/5 6/6/6 7/7/7 8/8/8
f 9/9/9 10/10/10 11/11/11 12/12/12
f 13/13/13 14/14/14 15/15/15 16/16/16
usemtl diffuse_0
v -75.608291625976563 0 -103.51132202148437
v -105.86156463623047 0 -120.16431427001953
v -49.851150512695313 0 -150.30398559570312
vt 0 1
vt 0 0
vt 1 0
vn 0 -1 0
vn 0 -1 0
vn 0 -1 0
f 17/17/17 18/18/18 19/19/19
usemtl diffuse_0
v -181.16650390625 0 -263.89593505859375
v -198.57240295410156 0 -253.26913452148437
v -189.34574890136719 0 -270.03109741210937
vt 0 1
vt 0 0
vt 1 0
vn 0 -1 0
vn 0 -1 0
vn 0 -1 0
f 20/20/20 21/21/21 22/22/22
usemtl diffuse_0
v -22.248537063598633 0 -213.30859375
v -168.47038269042969 0 -307.955078125
v -154.90020751953125 0 -332.60781860351562
v -4.2999749183654785 0 -249.70951843261719
v -40.197101593017578 0 -176.90765380859375
v -182.04055786132812 0 -283.30230712890625
v -168.47038269042969 0 -307.955078125
v -22.248537063598633 0 -213.30859375
vt 1 0.5
vt 0 0.5
vt 0 0
vt 1 0
vt 1 1
vt 0 1
vt 0 0.5
vt 1 0.5
vn 0 -1 0
vn 0 -1 0
vn 0 -1 0
vn 0 -1 0
vn 0 -1 0
vn 0 -1 0
vn 0 -1 0
vn 0 -1 0
f 23/23/23 24/24/24 25/25/25 26/26/26
f 27/27/27 28/28/28 29/29/29 30/30/30
usemtl diffuse_0
v -121.50954437255859 0 -128.77778625488281
v -233.24374389648437 0 -190.28218078613281
v -208.2862548828125 0 -235.62210083007812
v -208.2862548828125 0 -235.62210083007812
v -51.356800079345703 0 -166.52755737304687
v -121.50954437255859 0 -128.77778625488281
v -172.55540466308594 0 -257.43685913085937
v -51.356800079345703 0 -166.52755737304687
v -208.2862548828125 0 -235.62210083007812
vt 0.79371398687362671 0.79611378908157349
vt 0.052312135696411133 0.99019604921340942
vt 0.0098039219155907631 0.43281012773513794
vt 0.0098039219155907631 0.43281012773513794
vt 0.99019604921340942 0.0098039219155907631
vt 0.79371398687362671 0.79611378908157349
vt 0.1007624939084053 0.0098039219155907631
vt 0.99019604921340942 0.0098039219155907631
vt 0.0098039219155907631 0.43281012773513794
vn 0 -1 0
vn 0 -1 0
vn 0 -1 0
vn 0 -1 0
vn 0 -1 0
vn 0 -1 0
vn 0 -1 0
vn 0 -1 0
vn 0 -1 0
f 31/31/31 32/32/32 33/33/33
f 34/34/34 35/35/35 36/36/36
f 37/37/37 38/38/38 39/39/39
