# Rhino

mtllib parks_00235.mtl
usemtl diffuse_0
v -523.84954833984375 0 -3.4439065456390381
v -566.29144287109375 0 -33.990474700927734
v -546.09747314453125 0 7.5420260429382324
v -496.14892578125 0 4.157475471496582
v -523.84954833984375 0 -3.4439065456390381
v -546.09747314453125 0 7.5420260429382324
v -523.51263427734375 0 -34.135425567626953
v -566.29144287109375 0 -33.990474700927734
v -523.84954833984375 0 -3.4439065456390381
v -486.7237548828125 0 23.231588363647461
v -496.14892578125 0 4.157475471496582
v -546.09747314453125 0 7.5420260429382324
vt 0.53275084495544434 0.46568343043327332
vt 0.0098039219155907631 0.98771888017654419
vt 0.25862327218055725 0.27793577313423157
vt 0.87406390905380249 0.33577713370323181
vt 0.53275084495544434 0.46568343043327332
vt 0.25862327218055725 0.27793577313423157
vt 0.53690218925476074 0.99019604921340942
vt 0.0098039219155907631 0.98771888017654419
vt 0.53275084495544434 0.46568343043327332
vt 0.99019604921340942 0.0098039219155907631
vt 0.87406390905380249 0.33577713370323181
vt 0.25862327218055725 0.27793577313423157
vn 0 1 0
vn 0 1 0
vn 0 1 0
vn 0 1 0
vn 0 1 0
vn 0 1 0
vn 0 1 0
vn 0 1 0
vn 0 1 0
vn 0 1 0
vn 0 1 0
vn 0 1 0
f 1/1/1 2/2/2 3/3/3
f 4/4/4 5/5/5 6/6/6
f 7/7/7 8/8/8 9/9/9
f 10/10/10 11/11/11 12/12/12
usemtl diffuse_0
v 593.7852783203125 0 196.64785766601562
v 591.871337890625 0 208.10894775390625
v 571.48931884765625 0 206.17572021484375
v 571.60284423828125 0 193.79718017578125
v 615.96771240234375 0 199.49855041503906
v 612.25335693359375 0 210.04217529296875
v 591.871337890625 0 208.10894775390625
v 593.7852783203125 0 196.64785766601562
v 595.69921875 0 185.186767578125
v 593.7852783203125 0 196.64785766601562
v 571.60284423828125 0 193.79718017578125
v 571.71636962890625 0 181.41864013671875
v 619.68206787109375 0 188.95491027832031
v 615.96771240234375 0 199.49855041503906
v 593.7852783203125 0 196.64785766601562
v 595.69921875 0 185.186767578125
vt 0.5 0.5
vt 0 0.5
vt 0 0
vt 0.5 0
vt 0.5 1
vt 0 1
vt 0 0.5
vt 0.5 0.5
vt 1 0.5
vt 0.5 0.5
vt 0.5 0
vt 1 0
vt 1 1
vt 0.5 1
vt 0.5 0.5
vt 1 0.5
vn 0 -1 0
vn 0 -1 0
vn 0 -1 0
vn 0 -1 0
vn 0 -1 0
vn 0 -1 0
vn 0 -1 0
vn 0 -1 0
vn 0 -1 0
vn 0 -1 0
vn 0 -1 0
vn 0 -1 0
vn 0 -1 0
vn 0 -1 0
vn 0 -1 0
vn 0 -1 0
f 13/13/13 14/14/14 15/15/15 16/16/16
f 17/17/17 18/18/18 19/19/19 20/20/20
f 21/21/21 22/22/22 23/23/23 24/24/24
f 25/25/25 26/26/26 27/27/27 28/28/28
usemtl diffuse_0
v 77.755615234375 0 363.7835693359375
v 68.001075744628906 0 415.14132690429688
v 54.940387725830078 0 412.398193359375
v 64.960037231445312 0 361.85128784179687
v 90.551200866699219 0 365.71585083007812
v 81.061767578125 0 417.88442993164063
v 68.001075744628906 0 415.14132690429688
v 77.755615234375 0 363.7835693359375
vt 1 0.5
vt 0 0.5
vt 0 0
vt 1 0
vt 1 1
vt 0 1
vt 0 0.5
vt 1 0.5
vn 0 -1 0
vn 0 -1 0
vn 0 -1 0
vn 0 -1 0
vn 0 -1 0
vn 0 -1 0
vn 0 -1 0
vn 0 -1 0
f 29/29/29 30/30/30 31/31/31 32/32/32
f 33/33/33 34/34/34 35/35/35 36/36/36
usemtl diffuse_0
v 335.16217041015625 0 191.58256530761719
v 302.46853637695312 0 190.91004943847656
v 337.54922485351562 0 174.51422119140625
v 298.05148315429687 0 166.61628723144531
v 337.54922485351562 0 174.51422119140625
v 302.46853637695312 0 190.91004943847656
v 459.61740112304688 0 183.85386657714844
v 335.16217041015625 0 191.58256530761719
v 337.54922485351562 0 174.51422119140625
v 459.61740112304688 0 183.85386657714844
v 462.69143676757812 0 164.28883361816406
v 547.74993896484375 0 177.653076171875
v 457.804443359375 0 195.39274597167969
v 459.61740112304688 0 183.85386657714844
v 547.74993896484375 0 177.653076171875
v 335.16217041015625 0 191.58256530761719
v 459.61740112304688 0 183.85386657714844
v 457.804443359375 0 195.39274597167969
v 547.5091552734375 0 203.90121459960937
v 457.804443359375 0 195.39274597167969
v 547.74993896484375 0 177.653076171875
v 338.60977172851562 0 166.93069458007812
v 459.61740112304688 0 183.85386657714844
v 337.54922485351562 0 174.51422119140625
vt 0.1555117666721344 0.68531399965286255
vt 0.02714657224714756 0.66866934299468994
vt 0.16488401591777802 0.26287853717803955
vt 0.0098039219155907631 0.067407406866550446
vt 0.16488401591777802 0.26287853717803955
vt 0.02714657224714756 0.66866934299468994
vt 0.6441609263420105 0.49403116106987
vt 0.1555117666721344 0.68531399965286255
vt 0.16488401591777802 0.26287853717803955
vt 0.6441609263420105 0.49403116106987
vt 0.65623044967651367 0.0098039219155907631
vt 0.99019604921340942 0.34056386351585388
vt 0.63704270124435425 0.77961456775665283
vt 0.6441609263420105 0.49403116106987
vt 0.99019604921340942 0.34056386351585388
vt 0.1555117666721344 0.68531399965286255
vt 0.6441609263420105 0.49403116106987
vt 0.63704270124435425 0.77961456775665283
vt 0.98925083875656128 0.99019604921340942
vt 0.63704270124435425 0.77961456775665283
vt 0.99019604921340942 0.34056386351585388
vt 0.16904814541339874 0.075188912451267242
vt 0.6441609263420105 0.49403116106987
vt 0.16488401591777802 0.26287853717803955
vn 0 -1 0
vn 0 -1 0
vn 0 -1 0
vn 0 -1 0
vn 0 -1 0
vn 0 -1 0
vn 0 -1 0
vn 0 -1 0
vn 0 -1 0
vn 0 -1 0
vn 0 -1 0
vn 0 -1 0
vn 0 -1 0
vn 0 -1 0
vn 0 -1 0
vn 0 -1 0
vn 0 -1 0
vn 0 -1 0
vn 0 -1 0
vn 0 -1 0
vn 0 -1 0
vn 0 -1 0
vn 0 -1 0
vn 0 -1 0
f 37/37/37 38/38/38 39/39/39
f 40/40/40 41/41/41 42/42/42
f 43/43/43 44/44/44 45/45/45
f 46/46/46 47/47/47 48/48/48
f 49/49/49 50/50/50 51/51/51
f 52/52/52 53/53/53 54/54/54
f 55/55/55 56/56/56 57/57/57
f 58/58/58 59/59/59 60/60/60
usemtl diffuse_0
v 517.754638671875 0 89.417877197265625
v 517.1036376953125 0 83.9273681640625
v 537.9556884765625 0 92.452308654785156
vt 0 1
vt 0 0
vt 1 0
vn 0 -1 0
vn 0 -1 0
vn 0 -1 0
f 61/61/61 62/62/62 63/63/63
usemtl diffuse_0
v 484.97149658203125 0 617.2608642578125
v 510.84451293945313 0 629.76507568359375
v 571.19970703125 0 577.5665283203125
v 453.90188598632812 0 595.47357177734375
vt 1 1
vt 0 1
vt 0 0
vt 1 0
vn 0 1 0
vn 0 1 0
vn 0 1 0
vn 0 1 0
f 64/64/64 65/65/65 66/66/66 67/67/67
usemtl diffuse_0
v -275.09017944335937 0 71.967483520507813
v -271.19287109375 0 80.185813903808594
v -245.22128295898437 0 87.048828125
v -235.84831237792969 0 82.603965759277344
v -278.98745727539062 0 63.749149322509766
v -275.09017944335937 0 71.967483520507813
v -235.84831237792969 0 82.603965759277344
v -226.475341796875 0 78.159095764160156
vt 0.5 1
vt 0 1
vt 0 0
vt 0.5 0
vt 1 1
vt 0.5 1
vt 0.5 0
vt 1 0
vn 0 1 0
vn 0 1 0
vn 0 1 0
vn 0 1 0
vn 0 1 0
vn 0 1 0
vn 0 1 0
vn 0 1 0
f 68/68/68 69/69/69 70/70/70 71/71/71
f 72/72/72 73/73/73 74/74/74 75/75/75
usemtl diffuse_0
v -141.66038513183594 0 -58.090766906738281
v -132.69151306152344 0 -75.824104309082031
v -156.99215698242187 0 -84.452873229980469
v -162.25617980957031 0 -64.73486328125
v -121.0645751953125 0 -51.446674346923828
v -108.39086151123047 0 -67.195335388183594
v -132.69151306152344 0 -75.824104309082031
v -141.66038513183594 0 -58.090766906738281
v -150.62925720214844 0 -40.357429504394531
v -141.66038513183594 0 -58.090766906738281
v -162.25617980957031 0 -64.73486328125
v -167.52021789550781 0 -45.016849517822266
v -133.73828125 0 -35.698013305664063
v -121.0645751953125 0 -51.446674346923828
v -141.66038513183594 0 -58.090766906738281
v -150.62925720214844 0 -40.357429504394531
vt 0.5 0.5
vt 0 0.5
vt 0 0
vt 0.5 0
vt 0.5 1
vt 0 1
vt 0 0.5
vt 0.5 0.5
vt 1 0.5
vt 0.5 0.5
vt 0.5 0
vt 1 0
vt 1 1
vt 0.5 1
vt 0.5 0.5
vt 1 0.5
vn 0 1 0
vn 0 1 0
vn 0 1 0
vn 0 1 0
vn 0 1 0
vn 0 1 0
vn 0 1 0
vn 0 1 0
vn 0 1 0
vn 0 1 0
vn 0 1 0
vn 0 1 0
vn 0 1 0
vn 0 1 0
vn 0 1 0
vn 0 1 0
f 76/76/76 77/77/77 78/78/78 79/79/79
f 80/80/80 81/81/81 82/82/82 83/83/83
f 84/84/84 85/85/85 86/86/86 87/87/87
f 88/88/88 89/89/89 90/90/90 91/91/91
usemtl diffuse_0
v 232.79843139648437 0 391.668701171875
v 157.57987976074219 0 380.30978393554687
v 158.37564086914063 0 375.95816040039062
v 232.9119873046875 0 387.21405029296875
v 232.68486022949219 0 396.12335205078125
v 156.78411865234375 0 384.66140747070312
v 157.57987976074219 0 380.30978393554687
v 232.79843139648437 0 391.668701171875
v 308.0169677734375 0 403.027587890625
v 232.79843139648437 0 391.668701171875
v 232.9119873046875 0 387.21405029296875
v 307.44833374023437 0 398.46994018554687
v 308.58560180664062 0 407.58526611328125
v 232.68486022949219 0 396.12335205078125
v 232.79843139648437 0 391.668701171875
v 308.0169677734375 0 403.027587890625
vt 0.5 0.5
vt 0 0.5
vt 0 0
vt 0.5 0
vt 0.5 1
vt 0 1
vt 0 0.5
vt 0.5 0.5
vt 1 0.5
vt 0.5 0.5
vt 0.5 0
vt 1 0
vt 1 1
vt 0.5 1
vt 0.5 0.5
vt 1 0.5
vn 0 -1 0
vn 0 -1 0
vn 0 -1 0
vn 0 -1 0
vn 0 -1 0
vn 0 -1 0
vn 0 -1 0
vn 0 -1 0
vn 0 -1 0
vn 0 -1 0
vn 0 -1 0
vn 0 -1 0
vn 0 -1 0
vn 0 -1 0
vn 0 -1 0
vn 0 -1 0
f 92/92/92 93/93/93 94/94/94 95/95/95
f 96/96/96 97/97/97 98/98/98 99/99/99
f 100/100/100 101/101/101 102/102/102 103/103/103
f 104/104/104 105/105/105 106/106/106 107/107/107
usemtl diffuse_0
v 196.4769287109375 0 167.60162353515625
v 262.97512817382812 0 190.09765625
v 193.46556091308594 0 184.06927490234375
v 272.73773193359375 0 161.5545654296875
v 277.9835205078125 0 190.40638732910156
v 196.4769287109375 0 167.60162353515625
v 262.97512817382812 0 190.09765625
v 196.4769287109375 0 167.60162353515625
v 277.9835205078125 0 190.40638732910156
v 200.23388671875 0 147.05674743652344
v 272.73773193359375 0 161.5545654296875
v 196.4769287109375 0 167.60162353515625
v 196.4769287109375 0 167.60162353515625
v 193.46556091308594 0 184.06927490234375
v 48.707710266113281 0 145.45425415039062
v -4.0714311599731445 0 131.44474792480469
v 48.707710266113281 0 145.45425415039062
v -2.8955585956573486 0 147.78695678710937
v 48.707710266113281 0 145.45425415039062
v 51.911041259765625 0 133.38609313964844
v 196.4769287109375 0 167.60162353515625
v -2.8955585956573486 0 147.78695678710937
v 48.707710266113281 0 145.45425415039062
v 193.46556091308594 0 184.06927490234375
vt 0.29667764902114868 0.44600114226341248
vt 0.060222338885068893 0.1844237893819809
vt 0.29657250642776489 0.0098039219155907631
vt 0.045200582593679428 0.96198487281799316
vt 0.0098039219155907631 0.24756820499897003
vt 0.29667764902114868 0.44600114226341248
vt 0.060222338885068893 0.1844237893819809
vt 0.29667764902114868 0.44600114226341248
vt 0.0098039219155907631 0.24756820499897003
vt 0.29680880904197693 0.99019604921340942
vt 0.045200582593679428 0.96198487281799316
vt 0.29667764902114868 0.44600114226341248
vt 0.29667764902114868 0.44600114226341248
vt 0.29657250642776489 0.0098039219155907631
vt 0.80490106344223022 0.3138805627822876
vt 0.99019604921340942 0.42296344041824341
vt 0.80490106344223022 0.3138805627822876
vt 0.97615540027618408 0.0098039219155907631
vt 0.80490106344223022 0.3138805627822876
vt 0.8016432523727417 0.63826119899749756
vt 0.29667764902114868 0.44600114226341248
vt 0.97615540027618408 0.0098039219155907631
vt 0.80490106344223022 0.3138805627822876
vt 0.29657250642776489 0.0098039219155907631
vn 0 -1 0
vn 0 -1 0
vn 0 -1 0
vn 0 -1 0
vn 0 -1 0
vn 0 -1 0
vn 0 -1 0
vn 0 -1 0
vn 0 -1 0
vn 0 -1 0
vn 0 -1 0
vn 0 -1 0
vn 0 -1 0
vn 0 -1 0
vn 0 -1 0
vn 0 -1 0
vn 0 -1 0
vn 0 -1 0
vn 0 -1 0
vn 0 -1 0
vn 0 -1 0
vn 0 -1 0
vn 0 -1 0
vn 0 -1 0
f 108/108/108 109/109/109 110/110/110
f 111/111/111 112/112/112 113/113/113
f 114/114/114 115/115/115 116/116/116
f 117/117/117 118/118/118 119/119/119
f 120/120/120 121/121/121 122/122/122
f 123/123/123 124/124/124 125/125/125
f 126/126/126 127/127/127 128/128/128
f 129/129/129 130/130/130 131/131/131
usemtl diffuse_0
v 446.84530639648437 0 428.46414184570312
v 333.23611450195312 0 411.30780029296875
v 332.09884643554687 0 402.19244384765625
v 447.64190673828125 0 419.64083862304687
v 446.84530639648437 0 428.46414184570312
v 332.09884643554687 0 402.19244384765625
v 556.70703125 0 457.18093872070313
v 446.84530639648437 0 428.46414184570312
v 447.64190673828125 0 419.64083862304687
v 581.9871826171875 0 454.75741577148437
vt 0.46206581592559814 0.4202725887298584
vt 0.022894036024808884 0.99019604921340942
vt 0.0098039219155907631 0.58942884206771851
vt 0.45645144581794739 0.0098039219155907631
vt 0.46206581592559814 0.4202725887298584
vt 0.0098039219155907631 0.58942884206771851
vt 0.89853894710540771 0.4202725887298584
vt 0.46206581592559814 0.4202725887298584
vt 0.45645144581794739 0.0098039219155907631
vt 0.99019604921340942 0.0098039219155907631
vn 0 -1 0
vn 0 -1 0
vn 0 -1 0
vn 0 -1 0
vn 0 -1 0
vn 0 -1 0
vn 0 -1 0
vn 0 -1 0
vn 0 -1 0
vn 0 -1 0
f 132/132/132 133/133/133 134/134/134
f 135/135/135 136/136/136 137/137/137
f 138/138/138 139/139/139 140/140/140 141/141/141
usemtl diffuse_0
v 617.912353515625 0 473.17941284179687
v 617.70111083984375 0 472.65325927734375
v 622.28521728515625 0 474.32244873046875
v 631.435791015625 0 468.54293823242187
v 622.28521728515625 0 474.32244873046875
v 617.70111083984375 0 472.65325927734375
v 622.28521728515625 0 474.32244873046875
v 750 0 519.17059326171875
v 750 0 528.85748291015625
v 631.435791015625 0 468.54293823242187
v 750 0 519.17059326171875
v 622.28521728515625 0 474.32244873046875
vt 0.011369246989488602 0.085168324410915375
vt 0.0098039219155907631 0.076615802943706512
vt 0.043774295598268509 0.10374792665243149
vt 0.11158401519060135 0.0098039219155907631
vt 0.043774295598268509 0.10374792665243149
vt 0.0098039219155907631 0.076615802943706512
vt 0.043774295598268509 0.10374792665243149
vt 0.99019604921340942 0.83273935317993164
vt 0.99019604921340942 0.99019604921340942
vt 0.11158401519060135 0.0098039219155907631
vt 0.99019604921340942 0.83273935317993164
vt 0.043774295598268509 0.10374792665243149
vn 0 -1 0
vn 0 -1 0
vn 0 -1 0
vn 0 -1 0
vn 0 -1 0
vn 0 -1 0
vn 0 -1 0
vn 0 -1 0
vn 0 -1 0
vn 0 -1 0
vn 0 -1 0
vn 0 -1 0
f 142/142/142 143/143/143 144/144/144
f 145/145/145 146/146/146 147/147/147
f 148/148/148 149/149/149 150/150/150
f 151/151/151 152/152/152 153/153/153
usemtl diffuse_0
v -360.39242553710937 0 -173.33924865722656
v -363.00991821289062 0 -183.57737731933594
v -350.48837280273437 0 -187.81782531738281
v -351.27456665039062 0 -177.20379638671875
v -369.51028442382812 0 -169.47470092773437
v -375.53146362304687 0 -179.33694458007812
v -363.00991821289062 0 -183.57737731933594
v -360.39242553710937 0 -173.33924865722656
v -357.77493286132812 0 -163.10111999511719
v -360.39242553710937 0 -173.33924865722656
v -351.27456665039062 0 -177.20379638671875
v -352.060791015625 0 -166.58978271484375
v -363.48910522460937 0 -159.61245727539062
v -369.51028442382812 0 -169.47470092773437
v -360.39242553710937 0 -173.33924865722656
v -357.77493286132812 0 -163.10111999511719
vt 0.5 0.5
vt 0 0.5
vt 0 0
vt 0.5 0
vt 0.5 1
vt 0 1
vt 0 0.5
vt 0.5 0.5
vt 1 0.5
vt 0.5 0.5
vt 0.5 0
vt 1 0
vt 1 1
vt 0.5 1
vt 0.5 0.5
vt 1 0.5
vn 0 -1 0
vn 0 -1 0
vn 0 -1 0
vn 0 -1 0
vn 0 -1 0
vn 0 -1 0
vn 0 -1 0
vn 0 -1 0
vn 0 -1 0
vn 0 -1 0
vn 0 -1 0
vn 0 -1 0
vn 0 -1 0
vn 0 -1 0
vn 0 -1 0
vn 0 -1 0
f 154/154/154 155/155/155 156/156/156 157/157/157
f 158/158/158 159/159/159 160/160/160 161/161/161
f 162/162/162 163/163/163 164/164/164 165/165/165
f 166/166/166 167/167/167 168/168/168 169/169/169
usemtl diffuse_0
v 534.4083251953125 0 45.627651214599609
v 512.64251708984375 0 36.729167938232422
v 512.5150146484375 0 34.990062713623047
v 546.2821044921875 0 42.940353393554688
vt 1 1
vt 0 1
vt 0 0
vt 1 0
vn 0 -1 0
vn 0 -1 0
vn 0 -1 0
vn 0 -1 0
f 170/170/170 171/171/171 172/172/172 173/173/173
usemtl diffuse_0
v 577.761474609375 0 -224.39312744140625
v 578.883056640625 0 -238.444091796875
v 597.61004638671875 0 -236.613037109375
v 597.154052734375 0 -224.19540405273437
v 576.63983154296875 0 -210.34217834472656
v 577.761474609375 0 -224.39312744140625
v 597.154052734375 0 -224.19540405273437
v 596.69805908203125 0 -211.77777099609375
vt 0.5 1
vt 0 1
vt 0 0
vt 0.5 0
vt 1 1
vt 0.5 1
vt 0.5 0
vt 1 0
vn 0 -1 0
vn 0 -1 0
vn 0 -1 0
vn 0 -1 0
vn 0 -1 0
vn 0 -1 0
vn 0 -1 0
vn 0 -1 0
f 174/174/174 175/175/175 176/176/176 177/177/177
f 178/178/178 179/179/179 180/180/180 181/181/181
usemtl diffuse_0
v 566.55279541015625 0 -366.09353637695312
v 565.82049560546875 0 -366.04055786132812
v 565.7423095703125 0 -367.2843017578125
vt 0 1
vt 0 0
vt 1 0
vn 0 -1 0
vn 0 -1 0
vn 0 -1 0
f 182/182/182 183/183/183 184/184/184
usemtl diffuse_0
v -454.85629272460937 0 15.488666534423828
v -445.66958618164062 0 34.080192565917969
v -437.612060546875 0 36.209396362304687
v -417.93414306640625 0 25.620540618896484
vt 1 1
vt 0 1
vt 0 0
vt 1 0
vn 0 1 0
vn 0 1 0
vn 0 1 0
vn 0 1 0
f 185/185/185 186/186/186 187/187/187 188/188/188
usemtl diffuse_0
v -354.085693359375 0 -139.57734680175781
v -354.060546875 0 -139.59271240234375
v -354.0662841796875 0 -139.51518249511719
vt 0 1
vt 0 0
vt 1 0
vn 0 -1 0
vn 0 -1 0
vn 0 -1 0
f 189/189/189 190/190/190 191/191/191
usemtl diffuse_0
v -300.40380859375 0 -66.497100830078125
v -296.76556396484375 0 -96.759689331054688
v -267.34454345703125 0 -93.545501708984375
v -270.11801147460937 0 -62.835838317871094
v -330.68960571289062 0 -70.158370971679688
v -326.18661499023437 0 -99.973876953125
v -296.76556396484375 0 -96.759689331054688
v -300.40380859375 0 -66.497100830078125
vt 1 0.5
vt 0 0.5
vt 0 0
vt 1 0
vt 1 1
vt 0 1
vt 0 0.5
vt 1 0.5
vn 0 -1 0
vn 0 -1 0
vn 0 -1 0
vn 0 -1 0
vn 0 -1 0
vn 0 -1 0
vn 0 -1 0
vn 0 -1 0
f 192/192/192 193/193/193 194/194/194 195/195/195
f 196/196/196 197/197/197 198/198/198 199/199/199
usemtl diffuse_0
v 591.30291748046875 0 -372.38433837890625
v 574.3231201171875 0 -425.97970581054687
v 608.0943603515625 0 -427.62417602539062
v 562.57537841796875 0 -417.64358520507812
v 574.3231201171875 0 -425.97970581054687
v 562.7869873046875 0 -414.27874755859375
v 591.30291748046875 0 -372.38433837890625
v 562.7869873046875 0 -414.27874755859375
v 574.3231201171875 0 -425.97970581054687
vt 0.99019604921340942 0.0098039219155907631
vt 0.2033030092716217 0.77757847309112549
vt 0.0098039219155907631 0.0098039219155907631
vt 0.39675477147102356 0.99019604921340942
vt 0.2033030092716217 0.77757847309112549
vt 0.45037746429443359 0.96171027421951294
vt 0.99019604921340942 0.0098039219155907631
vt 0.45037746429443359 0.96171027421951294
vt 0.2033030092716217 0.77757847309112549
vn 0 -1 0
vn 0 -1 0
vn 0 -1 0
vn 0 -1 0
vn 0 -1 0
vn 0 -1 0
vn 0 -1 0
vn 0 -1 0
vn 0 -1 0
f 200/200/200 201/201/201 202/202/202
f 203/203/203 204/204/204 205/205/205
f 206/206/206 207/207/207 208/208/208
usemtl diffuse_0
v -157.99362182617187 0 103.55231475830078
v -152.62812805175781 0 98.42364501953125
v -196.90823364257812 0 86.272659301757813
v -206.07778930664062 0 90.621063232421875
v -109.90946197509766 0 116.48355865478516
v -108.3480224609375 0 110.57463073730469
v -152.62812805175781 0 98.42364501953125
v -157.99362182617187 0 103.55231475830078
v -163.359130859375 0 108.68097686767578
v -157.99362182617187 0 103.55231475830078
v -206.07778930664062 0 90.621063232421875
v -215.24734497070312 0 94.969467163085937
v -111.47090148925781 0 122.39248657226562
v -109.90946197509766 0 116.48355865478516
v -157.99362182617187 0 103.55231475830078
v -163.359130859375 0 108.68097686767578
vt 0.5 0.5
vt 0 0.5
vt 0 0
vt 0.5 0
vt 0.5 1
vt 0 1
vt 0 0.5
vt 0.5 0.5
vt 1 0.5
vt 0.5 0.5
vt 0.5 0
vt 1 0
vt 1 1
vt 0.5 1
vt 0.5 0.5
vt 1 0.5
vn 0 1 0
vn 0 1 0
vn 0 1 0
vn 0 1 0
vn 0 1 0
vn 0 1 0
vn 0 1 0
vn 0 1 0
vn 0 1 0
vn 0 1 0
vn 0 1 0
vn 0 1 0
vn 0 1 0
vn 0 1 0
vn 0 1 0
vn 0 1 0
f 209/209/209 210/210/210 211/211/211 212/212/212
f 213/213/213 214/214/214 215/215/215 216/216/216
f 217/217/217 218/218/218 219/219/219 220/220/220
f 221/221/221 222/222/222 223/223/223 224/224/224
usemtl diffuse_0
v -35.828182220458984 0 141.70188903808594
v -27.281757354736328 0 143.28103637695312
v -28.6019287109375 0 124.93344879150391
v -33.943809509277344 0 123.51551818847656
v -44.374610900878906 0 140.12274169921875
v -35.828182220458984 0 141.70188903808594
v -33.943809509277344 0 123.51551818847656
v -39.285690307617188 0 122.09759521484375
vt 0.5 1
vt 0 1
vt 0 0
vt 0.5 0
vt 1 1
vt 0.5 1
vt 0.5 0
vt 1 0
vn 0 1 0
vn 0 1 0
vn 0 1 0
vn 0 1 0
vn 0 1 0
vn 0 1 0
vn 0 1 0
vn 0 1 0
f 225/225/225 226/226/226 227/227/227 228/228/228
f 229/229/229 230/230/230 231/231/231 232/232/232
usemtl diffuse_0
v -347.24212646484375 0 52.568874359130859
v -344.41253662109375 0 45.795738220214844
v -384.391357421875 0 34.8250732421875
v -394.0179443359375 0 40.005210876464844
v -300.46627807617187 0 65.132545471191406
v -304.43368530273437 0 56.766407012939453
v -344.41253662109375 0 45.795738220214844
v -347.24212646484375 0 52.568874359130859
v -350.07171630859375 0 59.342014312744141
v -347.24212646484375 0 52.568874359130859
v -394.0179443359375 0 40.005210876464844
v -403.64453125 0 45.185348510742188
v -296.49887084960937 0 73.498680114746094
v -300.46627807617187 0 65.132545471191406
v -347.24212646484375 0 52.568874359130859
v -350.07171630859375 0 59.342014312744141
vt 0.5 0.5
vt 0 0.5
vt 0 0
vt 0.5 0
vt 0.5 1
vt 0 1
vt 0 0.5
vt 0.5 0.5
vt 1 0.5
vt 0.5 0.5
vt 0.5 0
vt 1 0
vt 1 1
vt 0.5 1
vt 0.5 0.5
vt 1 0.5
vn 0 1 0
vn 0 1 0
vn 0 1 0
vn 0 1 0
vn 0 1 0
vn 0 1 0
vn 0 1 0
vn 0 1 0
vn 0 1 0
vn 0 1 0
vn 0 1 0
vn 0 1 0
vn 0 1 0
vn 0 1 0
vn 0 1 0
vn 0 1 0
f 233/233/233 234/234/234 235/235/235 236/236/236
f 237/237/237 238/238/238 239/239/239 240/240/240
f 241/241/241 242/242/242 243/243/243 244/244/244
f 245/245/245 246/246/246 247/247/247 248/248/248
