# Rhino

mtllib parks_00121.mtl
usemtl diffuse_0
v -464.79672241210937 0 230.37704467773437
v -473.570556640625 0 213.13687133789062
v -458.86709594726562 0 186.42524719238281
v -473.570556640625 0 213.13687133789062
v -471.44259643554687 0 242.45053100585937
v -477.10482788085937 0 239.33377075195312
v -464.79672241210937 0 230.37704467773437
v -471.44259643554687 0 242.45053100585937
v -473.570556640625 0 213.13687133789062
vt 0.76990193128585815 0.0098039219155907631
vt 0.49718666076660156 0.99019551277160645
vt 0.0098039219155907631 0.0098039219155907631
vt 0.49718666076660156 0.99019551277160645
vt 0.99019604921340942 0.45293641090393066
vt 0.95023316144943237 0.99019604921340942
vt 0.76990193128585815 0.0098039219155907631
vt 0.99019604921340942 0.45293641090393066
vt 0.49718666076660156 0.99019551277160645
vn 0 -1 0
vn 0 -1 0
vn 0 -1 0
vn 0 -1 0
vn 0 -1 0
vn 0 -1 0
vn 0 -1 0
vn 0 -1 0
vn 0 -1 0
f 1/1/1 2/2/2 3/3/3
f 4/4/4 5/5/5 6/6/6
f 7/7/7 8/8/8 9/9/9
usemtl diffuse_0
v -142.59544372558594 0 -151.79940795898437
v -214.40480041503906 0 -191.32705688476562
v -148.59910583496094 0 -310.87545776367188
v -76.789741516113281 0 -271.3477783203125
v -70.786087036132813 0 -112.27176666259766
v -142.59544372558594 0 -151.79940795898437
v -76.789741516113281 0 -271.3477783203125
v -4.9803838729858398 0 -231.82011413574219
vt 0.5 1
vt 0 1
vt 0 0
vt 0.5 0
vt 1 1
vt 0.5 1
vt 0.5 0
vt 1 0
vn 0 -1 0
vn 0 -1 0
vn 0 -1 0
vn 0 -1 0
vn 0 -1 0
vn 0 -1 0
vn 0 -1 0
vn 0 -1 0
f 10/10/10 11/11/11 12/12/12 13/13/13
f 14/14/14 15/15/15 16/16/16 17/17/17
usemtl diffuse_0
v -495.05731201171875 0 318.53076171875
v -498.62420654296875 0 316.56735229492187
v -524.44757080078125 0 371.92385864257812
v -507.36129760742188 0 381.32904052734375
vt 1 1
vt 0 1
vt 0 0
vt 1 0
vn 0 1 0
vn 0 1 0
vn 0 1 0
vn 0 1 0
f 18/18/18 19/19/19 20/20/20 21/21/21
