# Rhino

mtllib parks_00021.mtl
usemtl diffuse_0
v -157.08210754394531 0 -314.69775390625
v -155.48188781738281 0 -331.55108642578125
v -154.90020751953125 0 -332.60781860351562
v -122.16893768310547 0 -314.5908203125
vt 1 1
vt 0 1
vt 0 0
vt 1 0
vn 0 -1 0
vn 0 -1 0
vn 0 -1 0
vn 0 -1 0
f 1/1/1 2/2/2 3/3/3 4/4/4
usemtl diffuse_0
v -506.41522216796875 0 373.83389282226562
v -519.24835205078125 0 386.20071411132812
v -498.46258544921875 0 397.64230346679687
v -498.46258544921875 0 397.64230346679687
v -493.58212280273437 0 361.46710205078125
v -506.41522216796875 0 373.83389282226562
vt 0.5 0.5
vt 0 1
vt 0 0
vt 0 0
vt 1 0
vt 0.5 0.5
vn 0 1 0
vn 0 1 0
vn 0 1 0
vn 0 1 0
vn 0 1 0
vn 0 1 0
f 5/5/5 6/6/6 7/7/7
f 8/8/8 9/9/9 10/10/10
usemtl diffuse_0
v -183.04025268554687 0 -222.41769409179687
v -215.93040466308594 0 -221.73509216308594
v -215.88572692871094 0 -221.81626892089844
v -180.90890502929687 0 -235.55244445800781
v -185.17160034179687 0 -209.28294372558594
v -215.97508239746094 0 -221.65391540527344
v -215.93040466308594 0 -221.73509216308594
v -183.04025268554687 0 -222.41769409179687
vt 1 0.5
vt 0 0.5
vt 0 0
vt 1 0
vt 1 1
vt 0 1
vt 0 0.5
vt 1 0.5
vn 0 -1 0
vn 0 -1 0
vn 0 -1 0
vn 0 -1 0
vn 0 -1 0
vn 0 -1 0
vn 0 -1 0
vn 0 -1 0
f 11/11/11 12/12/12 13/13/13 14/14/14
f 15/15/15 16/16/16 17/17/17 18/18/18
usemtl diffuse_0
v -190.12655639648437 0 -175.52424621582031
v -230.68182373046875 0 -194.93637084960937
v -228.11990356445312 0 -199.590576171875
v -188.9967041015625 0 -183.87835693359375
v -191.25640869140625 0 -167.17013549804687
v -233.24374389648437 0 -190.28218078613281
v -230.68182373046875 0 -194.93637084960937
v -190.12655639648437 0 -175.52424621582031
vt 1 0.5
vt 0 0.5
vt 0 0
vt 1 0
vt 1 1
vt 0 1
vt 0 0.5
vt 1 0.5
vn 0 -1 0
vn 0 -1 0
vn 0 -1 0
vn 0 -1 0
vn 0 -1 0
vn 0 -1 0
vn 0 -1 0
vn 0 -1 0
f 19/19/19 20/20/20 21/21/21 22/22/22
f 23/23/23 24/24/24 25/25/25 26/26/26
usemtl diffuse_0
v -532.89996337890625 0 354.0992431640625
v -543.28668212890625 0 372.96875
v -528.42041015625 0 381.15194702148437
v -521.98052978515625 0 374.946044921875
vt 1 1
vt 0 1
vt 0 0
vt 1 0
vn 0 1 0
vn 0 1 0
vn 0 1 0
vn 0 1 0
f 27/27/27 28/28/28 29/29/29 30/30/30
usemtl diffuse_0
v -154.76762390136719 0 -147.08479309082031
v -146.22268676757812 0 -144.17829895019531
v -146.6409912109375 0 -142.6114501953125
v -151.50102233886719 0 -147.68280029296875
v -145.80439758300781 0 -145.74514770507812
v -146.22268676757812 0 -144.17829895019531
v -157.19764709472656 0 -149.62046813964844
v -154.76762390136719 0 -147.08479309082031
v -162.89425659179687 0 -151.55812072753906
v -154.76762390136719 0 -147.08479309082031
v -157.19764709472656 0 -149.62046813964844
v -151.50102233886719 0 -147.68280029296875
v -146.22268676757812 0 -144.17829895019531
v -154.76762390136719 0 -147.08479309082031
v -151.50102233886719 0 -147.68280029296875
vt 0.5 0
vt 0 0.5
vt 0 0
vt 0.3333333432674408 0.66666668653488159
vt 0 1
vt 0 0.5
vt 0.66666668653488159 0.3333333432674408
vt 0.5 0
vt 1 0
vt 0.5 0
vt 0.66666668653488159 0.3333333432674408
vt 0.3333333432674408 0.66666668653488159
vt 0 0.5
vt 0.5 0
vt 0.3333333432674408 0.66666668653488159
vn 0 -1 0
vn 0 -1 0
vn 0 -1 0
vn 0 -1 0
vn 0 -1 0
vn 0 -1 0
vn 0 -1 0
vn 0 -1 0
vn 0 -1 0
vn 0 -1 0
vn 0 -1 0
vn 0 -1 0
vn 0 -1 0
vn 0 -1 0
vn 0 -1 0
f 31/31/31 32/32/32 33/33/33
f 34/34/34 35/35/35 36/36/36
f 37/37/37 38/38/38 39/39/39
f 40/40/40 41/41/41 42/42/42
f 43/43/43 44/44/44 45/45/45
usemtl diffuse_0
v -476.16378784179687 0 232.35855102539062
v -471.99917602539062 0 243.461669921875
v -479.50018310546875 0 257.088623046875
v -471.99917602539062 0 243.461669921875
v -476.16378784179687 0 232.35855102539062
v -464.49819946289062 0 229.834716796875
vt 1 0
vt 0 0.5
vt 0 0
vt 0 0.5
vt 1 0
vt 0 1
vn 0 -1 0
vn 0 -1 0
vn 0 -1 0
vn 0 -1 0
vn 0 -1 0
vn 0 -1 0
f 46/46/46 47/47/47 48/48/48
f 49/49/49 50/50/50 51/51/51
usemtl diffuse_0
v -517.5157470703125 0 342.50369262695312
v -514.01788330078125 0 336.14910888671875
v -506.82772827148437 0 340.10696411132812
v -513.823486328125 0 352.81607055664062
v -521.013671875 0 348.85824584960937
v -517.5157470703125 0 342.50369262695312
v -506.82772827148437 0 340.10696411132812
v -513.823486328125 0 352.81607055664062
v -517.5157470703125 0 342.50369262695312
v -514.01788330078125 0 336.14910888671875
v -517.5157470703125 0 342.50369262695312
v -521.11083984375 0 340.52474975585937
v -517.61297607421875 0 334.17019653320312
v -517.5157470703125 0 342.50369262695312
v -521.013671875 0 348.85824584960937
v -524.60870361328125 0 346.87930297851562
v -521.11083984375 0 340.52474975585937
v -492.836181640625 0 314.68875122070312
v -499.83193969726562 0 327.39785766601562
v -507.02212524414062 0 323.44000244140625
v -500.02633666992187 0 310.73089599609375
v -499.83193969726562 0 327.39785766601562
v -506.82772827148437 0 340.10696411132812
v -514.01788330078125 0 336.14910888671875
v -507.02212524414062 0 323.44000244140625
v -521.11083984375 0 340.52474975585937
v -524.60870361328125 0 346.87930297851562
v -526.457275390625 0 344.84725952148437
v -514.478515625 0 367.71664428710937
v -526.457275390625 0 344.84725952148437
v -524.60870361328125 0 346.87930297851562
v -521.11083984375 0 340.52474975585937
v -526.3475341796875 0 342.19552612304687
v -517.61297607421875 0 334.17019653320312
v -510.73171997070312 0 313.82656860351562
v -517.61297607421875 0 334.17019653320312
v -526.3475341796875 0 342.19552612304687
v -526.457275390625 0 344.84725952148437
v -526.3475341796875 0 342.19552612304687
v -521.11083984375 0 340.52474975585937
v -513.823486328125 0 352.81607055664062
v -514.478515625 0 367.71664428710937
v -521.013671875 0 348.85824584960937
v -524.60870361328125 0 346.87930297851562
v -521.013671875 0 348.85824584960937
v -514.478515625 0 367.71664428710937
v -491.42852783203125 0 345.50424194335937
v -514.478515625 0 367.71664428710937
v -513.823486328125 0 352.81607055664062
v -506.82772827148437 0 340.10696411132812
v -491.42852783203125 0 345.50424194335937
v -513.823486328125 0 352.81607055664062
v -514.01788330078125 0 336.14910888671875
v -517.61297607421875 0 334.17019653320312
v -507.02212524414062 0 323.44000244140625
v -500.02633666992187 0 310.73089599609375
v -507.02212524414062 0 323.44000244140625
v -510.73171997070312 0 313.82656860351562
v -517.61297607421875 0 334.17019653320312
v -510.73171997070312 0 313.82656860351562
v -507.02212524414062 0 323.44000244140625
v -495.115966796875 0 285.45758056640625
v -483.47628784179687 0 286.56048583984375
v -500.02633666992187 0 310.73089599609375
v -510.73171997070312 0 313.82656860351562
v -495.115966796875 0 285.45758056640625
v -500.02633666992187 0 310.73089599609375
v -479.50018310546875 0 257.088623046875
v -483.47628784179687 0 286.56048583984375
v -495.115966796875 0 285.45758056640625
v -487.45242309570312 0 316.03237915039062
v -491.42852783203125 0 345.50424194335937
v -499.83193969726562 0 327.39785766601562
v -499.83193969726562 0 327.39785766601562
v -491.42852783203125 0 345.50424194335937
v -506.82772827148437 0 340.10696411132812
v -487.45242309570312 0 316.03237915039062
v -492.836181640625 0 314.68875122070312
v -483.47628784179687 0 286.56048583984375
v -499.83193969726562 0 327.39785766601562
v -492.836181640625 0 314.68875122070312
v -487.45242309570312 0 316.03237915039062
v -492.836181640625 0 314.68875122070312
v -500.02633666992187 0 310.73089599609375
v -483.47628784179687 0 286.56048583984375
vt 0.1875 0.25
vt 0.25 0.25
vt 0.25 0.5
vt 0.125 0.5
vt 0.125 0.25
vt 0.1875 0.25
vt 0.25 0.5
vt 0.125 0.5
vt 0.1875 0.25
vt 0.25 0.25
vt 0.1875 0.25
vt 0.1875 0.125
vt 0.25 0.125
vt 0.1875 0.25
vt 0.125 0.25
vt 0.125 0.125
vt 0.1875 0.125
vt 0.5 0.5
vt 0.375 0.5
vt 0.375 0.25
vt 0.5 0.25
vt 0.375 0.5
vt 0.25 0.5
vt 0.25 0.25
vt 0.375 0.25
vt 0.1875 0.125
vt 0.125 0.125
vt 0.13265785574913025 0.045823927968740463
vt 0.0098039219155907631 0.70138812065124512
vt 0.13265785574913025 0.045823927968740463
vt 0.125 0.125
vt 0.1875 0.125
vt 0.15313006937503815 0.0098039219155907631
vt 0.25 0.125
vt 0.43215206265449524 0.0098039219155907631
vt 0.25 0.125
vt 0.15313006937503815 0.0098039219155907631
vt 0.13265785574913025 0.045823927968740463
vt 0.15313006937503815 0.0098039219155907631
vt 0.1875 0.125
vt 0.125 0.5
vt 0.0098039219155907631 0.70138812065124512
vt 0.125 0.25
vt 0.125 0.125
vt 0.125 0.25
vt 0.0098039219155907631 0.70138812065124512
vt 0.27324312925338745 0.99019604921340942
vt 0.0098039219155907631 0.70138812065124512
vt 0.125 0.5
vt 0.25 0.5
vt 0.27324312925338745 0.99019604921340942
vt 0.125 0.5
vt 0.25 0.25
vt 0.25 0.125
vt 0.375 0.25
vt 0.5 0.25
vt 0.375 0.25
vt 0.43215206265449524 0.0098039219155907631
vt 0.25 0.125
vt 0.43215206265449524 0.0098039219155907631
vt 0.375 0.25
vt 0.71117407083511353 0.0098039219155907631
vt 0.75121176242828369 0.33660131692886353
vt 0.5 0.25
vt 0.43215206265449524 0.0098039219155907631
vt 0.71117407083511353 0.0098039219155907631
vt 0.5 0.25
vt 0.99019604921340942 0.0098039219155907631
vt 0.75121176242828369 0.33660131692886353
vt 0.71117407083511353 0.0098039219155907631
vt 0.51222741603851318 0.66339868307113647
vt 0.27324312925338745 0.99019604921340942
vt 0.375 0.5
vt 0.375 0.5
vt 0.27324312925338745 0.99019604921340942
vt 0.25 0.5
vt 0.51222741603851318 0.66339868307113647
vt 0.5 0.5
vt 0.75121176242828369 0.33660131692886353
vt 0.375 0.5
vt 0.5 0.5
vt 0.51222741603851318 0.66339868307113647
vt 0.5 0.5
vt 0.5 0.25
vt 0.75121176242828369 0.33660131692886353
vn 0 -1 0
vn 0 -1 0
vn 0 -1 0
vn 0 -1 0
vn 0 -1 0
vn 0 -1 0
vn 0 -1 0
vn 0 -1 0
vn 0 -1 0
vn 0 -1 0
vn 0 -1 0
vn 0 -1 0
vn 0 -1 0
vn 0 -1 0
vn 0 -1 0
vn 0 -1 0
vn 0 -1 0
vn 0 -1 0
vn 0 -1 0
vn 0 -1 0
vn 0 -1 0
vn 0 -1 0
vn 0 -1 0
vn 0 -1 0
vn 0 -1 0
vn 0 -1 0
vn 0 -1 0
vn 0 -1 0
vn 0 -1 0
vn 0 -1 0
vn 0 -1 0
vn 0 -1 0
vn 0 -1 0
vn 0 -1 0
vn 0 -1 0
vn 0 -1 0
vn 0 -1 0
vn 0 -1 0
vn 0 -1 0
vn 0 -1 0
vn 0 -1 0
vn 0 -1 0
vn 0 -1 0
vn 0 -1 0
vn 0 -1 0
vn 0 -1 0
vn 0 -1 0
vn 0 -1 0
vn 0 -1 0
vn 0 -1 0
vn 0 -1 0
vn 0 -1 0
vn 0 -1 0
vn 0 -1 0
vn 0 -1 0
vn 0 -1 0
vn 0 -1 0
vn 0 -1 0
vn 0 -1 0
vn 0 -1 0
vn 0 -1 0
vn 0 -1 0
vn 0 -1 0
vn 0 -1 0
vn 0 -1 0
vn 0 -1 0
vn 0 -1 0
vn 0 -1 0
vn 0 -1 0
vn 0 -1 0
vn 0 -1 0
vn 0 -1 0
vn 0 -1 0
vn 0 -1 0
vn 0 -1 0
vn 0 -1 0
vn 0 -1 0
vn 0 -1 0
vn 0 -1 0
vn 0 -1 0
vn 0 -1 0
vn 0 -1 0
vn 0 -1 0
vn 0 -1 0
vn 0 -1 0
f 52/52/52 53/53/53 54/54/54
f 55/55/55 56/56/56 57/57/57
f 58/58/58 59/59/59 60/60/60
f 61/61/61 62/62/62 63/63/63 64/64/64
f 65/65/65 66/66/66 67/67/67 68/68/68
f 69/69/69 70/70/70 71/71/71 72/72/72
f 73/73/73 74/74/74 75/75/75 76/76/76
f 77/77/77 78/78/78 79/79/79
f 80/80/80 81/81/81 82/82/82
f 83/83/83 84/84/84 85/85/85
f 86/86/86 87/87/87 88/88/88
f 89/89/89 90/90/90 91/91/91
f 92/92/92 93/93/93 94/94/94
f 95/95/95 96/96/96 97/97/97
f 98/98/98 99/99/99 100/100/100
f 101/101/101 102/102/102 103/103/103
f 104/104/104 105/105/105 106/106/106
f 107/107/107 108/108/108 109/109/109
f 110/110/110 111/111/111 112/112/112
f 113/113/113 114/114/114 115/115/115
f 116/116/116 117/117/117 118/118/118
f 119/119/119 120/120/120 121/121/121
f 122/122/122 123/123/123 124/124/124
f 125/125/125 126/126/126 127/127/127
f 128/128/128 129/129/129 130/130/130
f 131/131/131 132/132/132 133/133/133
f 134/134/134 135/135/135 136/136/136
usemtl diffuse_0
v -94.908737182617188 0 -299.54745483398438
v -94.927970886230469 0 -299.53909301757813
v -94.938743591308594 0 -299.56399536132812
v -94.938743591308594 0 -299.56399536132812
v -94.927970886230469 0 -299.53909301757813
v -94.947196960449219 0 -299.53076171875
v -94.938743591308594 0 -299.56399536132812
v -94.930290222167969 0 -299.59722900390625
v -94.900276184082031 0 -299.5806884765625
v -94.908737182617188 0 -299.54745483398438
v -94.889503479003906 0 -299.55581665039062
v -94.900276184082031 0 -299.5806884765625
v -94.870269775390625 0 -299.56417846679687
v -94.900276184082031 0 -299.5806884765625
v -94.889503479003906 0 -299.55581665039062
v -94.908737182617188 0 -299.54745483398438
vt 0.5 0.5
vt 0.25 0.75
vt 0 0.5
vt 0 0.5
vt 0.25 0.75
vt 0 1
vt 0 0.5
vt 0 0
vt 0.5 0
vt 0.5 0.5
vt 0.75 0.25
vt 0.5 0
vt 1 0
vt 0.5 0
vt 0.75 0.25
vt 0.5 0.5
vn 0 -1 0
vn 0 -1 0
vn 0 -1 0
vn 0 -1 0
vn 0 -1 0
vn 0 -1 0
vn 0 -1 0
vn 0 -1 0
vn 0 -1 0
vn 0 -1 0
vn 0 -1 0
vn 0 -1 0
vn 0 -1 0
vn 0 -1 0
vn 0 -1 0
vn 0 -1 0
f 137/137/137 138/138/138 139/139/139
f 140/140/140 141/141/141 142/142/142
f 143/143/143 144/144/144 145/145/145 146/146/146
f 147/147/147 148/148/148 149/149/149
f 150/150/150 151/151/151 152/152/152
usemtl diffuse_0
v -2.3481986522674561 0 -248.63516235351562
v -4.3459038734436035 0 -232.97276306152344
v -11.427042961120605 0 -220.10855102539062
v -4.3459038734436035 0 -232.97276306152344
v -2.3481986522674561 0 -248.63516235351562
v 2.7352349758148193 0 -245.83697509765625
vt 1 0
vt 0 0.5
vt 0 0
vt 0 0.5
vt 1 0
vt 0 1
vn 0 -1 0
vn 0 -1 0
vn 0 -1 0
vn 0 -1 0
vn 0 -1 0
vn 0 -1 0
f 153/153/153 154/154/154 155/155/155
f 156/156/156 157/157/157 158/158/158
usemtl diffuse_0
v -191.22654724121094 0 -260.65463256835937
v -192.83854675292969 0 -257.72613525390625
v -197.02378845214844 0 -256.08248901367187
v -192.83854675292969 0 -257.72613525390625
v -191.22654724121094 0 -260.65463256835937
v -188.65330505371094 0 -259.3697509765625
v -197.02378845214844 0 -256.08248901367187
v -193.79978942871094 0 -261.93948364257812
v -191.22654724121094 0 -260.65463256835937
vt 0.5 0.5
vt 0 0.5
vt 0 0
vt 0 0.5
vt 0.5 0.5
vt 0 1
vt 0 0
vt 1 0
vt 0.5 0.5
vn 0 -1 0
vn 0 -1 0
vn 0 -1 0
vn 0 -1 0
vn 0 -1 0
vn 0 -1 0
vn 0 -1 0
vn 0 -1 0
vn 0 -1 0
f 159/159/159 160/160/160 161/161/161
f 162/162/162 163/163/163 164/164/164
f 165/165/165 166/166/166 167/167/167
usemtl diffuse_0
v -175.54783630371094 0 -278.90725708007812
v -177.40550231933594 0 -259.3421630859375
v -191.38671875 0 -266.32327270507812
v -191.38671875 0 -266.32327270507812
v -173.69017028808594 0 -298.47238159179687
v -175.54783630371094 0 -278.90725708007812
vt 0.5 0.5
vt 0 1
vt 0 0
vt 0 0
vt 1 0
vt 0.5 0.5
vn 0 -1 0
vn 0 -1 0
vn 0 -1 0
vn 0 -1 0
vn 0 -1 0
vn 0 -1 0
f 168/168/168 169/169/169 170/170/170
f 171/171/171 172/172/172 173/173/173
usemtl diffuse_0
v -64.493995666503906 0 -123.70252227783203
v -75.608291625976563 0 -103.51132202148437
v -137.61689758300781 0 -137.64411926269531
v -136.22639465332031 0 -142.85264587402344
vt 1 1
vt 0 1
vt 0 0
vt 1 0
vn 0 -1 0
vn 0 -1 0
vn 0 -1 0
vn 0 -1 0
f 174/174/174 175/175/175 176/176/176 177/177/177
usemtl diffuse_0
v -141.06074523925781 0 -161.40335083007812
v -139.13519287109375 0 -167.45744323730469
v -174.53970336914062 0 -178.85354614257812
v -175.36540222167969 0 -172.74855041503906
v -142.98629760742187 0 -155.3492431640625
v -141.06074523925781 0 -161.40335083007812
v -175.36540222167969 0 -172.74855041503906
v -176.19110107421875 0 -166.6435546875
vt 1 0.5
vt 1 0
vt 0 0
vt 0 0.5
vt 1 1
vt 1 0.5
vt 0 0.5
vt 0 1
vn 0 1 0
vn 0 1 0
vn 0 1 0
vn 0 1 0
vn 0 1 0
vn 0 1 0
vn 0 1 0
vn 0 1 0
f 178/178/178 179/179/179 180/180/180 181/181/181
f 182/182/182 183/183/183 184/184/184 185/185/185
usemtl diffuse_0
v -96.764999389648438 0 -271.48214721679687
v -15.743020057678223 0 -256.00839233398438
v -67.197235107421875 0 -284.33148193359375
v -45.190601348876953 0 -163.48124694824219
v -15.743020057678223 0 -256.00839233398438
v -96.764999389648438 0 -271.48214721679687
v -164.67100524902344 0 -241.97195434570312
v -126.75689697265625 0 -189.73625183105469
v -45.190601348876953 0 -163.48124694824219
v -126.75689697265625 0 -189.73625183105469
v -164.67100524902344 0 -241.97195434570312
v -170.84440612792969 0 -203.92735290527344
v -96.764999389648438 0 -271.48214721679687
v -164.67100524902344 0 -241.97195434570312
v -45.190601348876953 0 -163.48124694824219
vt 0.20149266719818115 0.59308630228042603
vt 0.11268889158964157 0.0098039219155907631
vt 0.0098039219155907631 0.42017588019371033
vt 0.99019604921340942 0.0098039219155907631
vt 0.11268889158964157 0.0098039219155907631
vt 0.20149266719818115 0.59308630228042603
vt 0.64173042774200439 0.99019604921340942
vt 0.98764878511428833 0.62006658315658569
vt 0.99019604921340942 0.0098039219155907631
vt 0.98764878511428833 0.62006658315658569
vt 0.64173042774200439 0.99019604921340942
vt 0.98627215623855591 0.94992029666900635
vt 0.20149266719818115 0.59308630228042603
vt 0.64173042774200439 0.99019604921340942
vt 0.99019604921340942 0.0098039219155907631
vn 0 1 0
vn 0 1 0
vn 0 1 0
vn 0 1 0
vn 0 1 0
vn 0 1 0
vn 0 1 0
vn 0 1 0
vn 0 1 0
vn 0 1 0
vn 0 1 0
vn 0 1 0
vn 0 1 0
vn 0 1 0
vn 0 1 0
f 186/186/186 187/187/187 188/188/188
f 189/189/189 190/190/190 191/191/191
f 192/192/192 193/193/193 194/194/194
f 195/195/195 196/196/196 197/197/197
f 198/198/198 199/199/199 200/200/200
usemtl diffuse_0
v -106.80935668945312 0 -151.14657592773437
v -104.83369445800781 0 -156.41624450683594
v -129.61619567871094 0 -164.39335632324219
v -131.51519775390625 0 -158.42269897460938
v -108.78501129150391 0 -145.87692260742187
v -106.80935668945312 0 -151.14657592773437
v -131.51519775390625 0 -158.42269897460938
v -133.41419982910156 0 -152.45205688476562
v -82.103507995605469 0 -143.87046813964844
v -80.051185607910156 0 -148.43913269042969
v -104.83369445800781 0 -156.41624450683594
v -106.80935668945312 0 -151.14657592773437
v -84.15582275390625 0 -139.30178833007813
v -82.103507995605469 0 -143.87046813964844
v -106.80935668945312 0 -151.14657592773437
v -108.78501129150391 0 -145.87692260742187
v -57.397659301757812 0 -136.59434509277344
v -55.268680572509766 0 -140.4620361328125
v -80.051185607910156 0 -148.43913269042969
v -82.103507995605469 0 -143.87046813964844
v -59.526634216308594 0 -132.72665405273437
v -57.397659301757812 0 -136.59434509277344
v -82.103507995605469 0 -143.87046813964844
v -84.15582275390625 0 -139.30178833007813
vt 0.3333333432674408 0.5
vt 0.3333333432674408 0
vt 0 0
vt 0 0.5
vt 0.3333333432674408 1
vt 0.3333333432674408 0.5
vt 0 0.5
vt 0 1
vt 0.66666668653488159 0.5
vt 0.66666668653488159 0
vt 0.3333333432674408 0
vt 0.3333333432674408 0.5
vt 0.66666668653488159 1
vt 0.66666668653488159 0.5
vt 0.3333333432674408 0.5
vt 0.3333333432674408 1
vt 1 0.5
vt 1 0
vt 0.66666668653488159 0
vt 0.66666668653488159 0.5
vt 1 1
vt 1 0.5
vt 0.66666668653488159 0.5
vt 0.66666668653488159 1
vn 0 1 0
vn 0 1 0
vn 0 1 0
vn 0 1 0
vn 0 1 0
vn 0 1 0
vn 0 1 0
vn 0 1 0
vn 0 1 0
vn 0 1 0
vn 0 1 0
vn 0 1 0
vn 0 1 0
vn 0 1 0
vn 0 1 0
vn 0 1 0
vn 0 1 0
vn 0 1 0
vn 0 1 0
vn 0 1 0
vn 0 1 0
vn 0 1 0
vn 0 1 0
vn 0 1 0
f 201/201/201 202/202/202 203/203/203 204/204/204
f 205/205/205 206/206/206 207/207/207 208/208/208
f 209/209/209 210/210/210 211/211/211 212/212/212
f 213/213/213 214/214/214 215/215/215 216/216/216
f 217/217/217 218/218/218 219/219/219 220/220/220
f 221/221/221 222/222/222 223/223/223 224/224/224
usemtl diffuse_0
v -473.75711059570312 0 214.51979064941406
v -474.741943359375 0 221.81951904296875
v -463.01419067382812 0 219.28225708007812
v -465.17330932617187 0 214.99343872070312
v -473.75711059570312 0 214.51979064941406
v -463.01419067382812 0 219.28225708007812
v -458.82101440429687 0 219.52107238769531
v -456.58950805664062 0 215.46708679199219
v -463.01419067382812 0 219.28225708007812
v -465.17330932617187 0 214.99343872070312
v -463.01419067382812 0 219.28225708007812
v -456.58950805664062 0 215.46708679199219
vt 0.041857656091451645 0.0098039219155907631
vt 0.0098039219155907631 0.99019604921340942
vt 0.64796704053878784 0.56567466259002686
vt 0.51602685451507568 0.0098039219155907631
vt 0.041857656091451645 0.0098039219155907631
vt 0.64796704053878784 0.56567466259002686
vt 0.8796202540397644 0.56666743755340576
vt 0.99019604921340942 0.0098039219155907631
vt 0.64796704053878784 0.56567466259002686
vt 0.51602685451507568 0.0098039219155907631
vt 0.64796704053878784 0.56567466259002686
vt 0.99019604921340942 0.0098039219155907631
vn 0 1 0
vn 0 1 0
vn 0 1 0
vn 0 1 0
vn 0 1 0
vn 0 1 0
vn 0 1 0
vn 0 1 0
vn 0 1 0
vn 0 1 0
vn 0 1 0
vn 0 1 0
f 225/225/225 226/226/226 227/227/227
f 228/228/228 229/229/229 230/230/230
f 231/231/231 232/232/232 233/233/233
f 234/234/234 235/235/235 236/236/236
usemtl diffuse_0
v -131.00325012207031 0 -283.86175537109375
v -157.55670166015625 0 -309.69915771484375
v -161.25840759277344 0 -270.71365356445312
v -113.03466033935547 0 -309.56280517578125
v -157.55670166015625 0 -309.69915771484375
v -131.00325012207031 0 -283.86175537109375
v -100.74810028076172 0 -297.00985717773437
v -99.455787658691406 0 -302.08828735351562
v -113.03466033935547 0 -309.56280517578125
v -131.00325012207031 0 -283.86175537109375
v -100.74810028076172 0 -297.00985717773437
v -113.03466033935547 0 -309.56280517578125
vt 0.48974984884262085 0.65955281257629395
vt 0.068525023758411407 0.0098039219155907631
vt 0.0098039219155907631 0.99019604921340942
vt 0.77479064464569092 0.013232354074716568
vt 0.068525023758411407 0.0098039219155907631
vt 0.48974984884262085 0.65955281257629395
vt 0.9696958065032959 0.3289094865322113
vt 0.99019604921340942 0.20119878649711609
vt 0.77479064464569092 0.013232354074716568
vt 0.48974984884262085 0.65955281257629395
vt 0.9696958065032959 0.3289094865322113
vt 0.77479064464569092 0.013232354074716568
vn 0 1 0
vn 0 1 0
vn 0 1 0
vn 0 1 0
vn 0 1 0
vn 0 1 0
vn 0 1 0
vn 0 1 0
vn 0 1 0
vn 0 1 0
vn 0 1 0
vn 0 1 0
f 237/237/237 238/238/238 239/239/239
f 240/240/240 241/241/241 242/242/242
f 243/243/243 244/244/244 245/245/245
f 246/246/246 247/247/247 248/248/248
