# Rhino

mtllib parks_00197.mtl
usemtl diffuse_0
v -525.75732421875 0 -343.36965942382812
v -556.91900634765625 0 -195.33184814453125
v -575.2239990234375 0 -248.0511474609375
v -536.11822509765625 0 -346.54736328125
v -525.75732421875 0 -343.36965942382812
v -575.2239990234375 0 -248.0511474609375
v -584.48138427734375 0 -159.12594604492187
v -575.2239990234375 0 -248.0511474609375
v -556.91900634765625 0 -195.33184814453125
v -402.39498901367187 0 -444.56533813476562
v -525.75732421875 0 -343.36965942382812
v -473.28900146484375 0 -418.30755615234375
v -536.11822509765625 0 -346.54736328125
v -473.28900146484375 0 -418.30755615234375
v -525.75732421875 0 -343.36965942382812
v -400.07870483398437 0 -480.349853515625
v -402.39498901367187 0 -444.56533813476562
v -473.28900146484375 0 -418.30755615234375
v -576.59527587890625 0 -55.1822509765625
v -584.48138427734375 0 -159.12594604492187
v -537.29388427734375 0 -74.594551086425781
v -556.91900634765625 0 -195.33184814453125
v -537.29388427734375 0 -74.594551086425781
v -584.48138427734375 0 -159.12594604492187
v -523.472412109375 0 54.074649810791016
v -576.59527587890625 0 -55.1822509765625
v -537.29388427734375 0 -74.594551086425781
v -428.1063232421875 0 181.58903503417969
v -523.472412109375 0 54.074649810791016
v -466.80990600585937 0 68.0467529296875
v -537.29388427734375 0 -74.594551086425781
v -466.80990600585937 0 68.0467529296875
v -523.472412109375 0 54.074649810791016
v -466.80990600585937 0 68.0467529296875
v -378.02285766601562 0 248.55586242675781
v -428.1063232421875 0 181.58903503417969
v 29.440900802612305 0 -689.69195556640625
v -268.15069580078125 0 -554.6876220703125
v -192.28160095214844 0 -608.6512451171875
v -400.07870483398437 0 -480.349853515625
v -192.28160095214844 0 -608.6512451171875
v -268.15069580078125 0 -554.6876220703125
v 93.680900573730469 0 -749.99993896484375
v 29.440900802612305 0 -689.69195556640625
v -192.28160095214844 0 -608.6512451171875
v 192.13519287109375 0 -749.99993896484375
v 30.625400543212891 0 -690.17926025390625
v 93.680900573730469 0 -749.99993896484375
v 29.440900802612305 0 -689.69195556640625
v 93.680900573730469 0 -749.99993896484375
v 30.625400543212891 0 -690.17926025390625
v -466.80990600585937 0 68.0467529296875
v -101.93229675292969 0 443.95925903320312
v -378.02285766601562 0 248.55586242675781
v -100.97429656982422 0 444.87615966796875
v -378.02285766601562 0 248.55586242675781
v -101.93229675292969 0 443.95925903320312
v -400.07870483398437 0 -480.349853515625
v -268.15069580078125 0 -554.6876220703125
v -402.39498901367187 0 -444.56533813476562
v 203.48490905761719 0 750
v -100.97429656982422 0 444.87615966796875
v 94.59539794921875 0 618.70257568359375
v 94.59539794921875 0 618.70257568359375
v 242.31643676757813 0 750
v 203.48490905761719 0 750
v -378.02285766601562 0 248.55586242675781
v -100.97429656982422 0 444.87615966796875
v 203.48490905761719 0 750
vt 0.079437203705310822 0.27557536959648132
vt 0.042486589401960373 0.37233209609985352
vt 0.020781069993972778 0.33787503838539124
vt 0.067151561379432678 0.27349844574928284
vt 0.079437203705310822 0.27557536959648132
vt 0.020781069993972778 0.33787503838539124
vt 0.0098039219155907631 0.39599609375
vt 0.020781069993972778 0.33787503838539124
vt 0.042486589401960373 0.37233209609985352
vt 0.22571653127670288 0.2094343900680542
vt 0.079437203705310822 0.27557536959648132
vt 0.14165253937244415 0.22659634053707123
vt 0.067151561379432678 0.27349844574928284
vt 0.14165253937244415 0.22659634053707123
vt 0.079437203705310822 0.27557536959648132
vt 0.22846312820911407 0.18604582548141479
vt 0.22571653127670288 0.2094343900680542
vt 0.14165253937244415 0.22659634053707123
vt 0.019155023619532585 0.46393314003944397
vt 0.0098039219155907631 0.39599609375
vt 0.065757445991039276 0.45124536752700806
vt 0.042486589401960373 0.37233209609985352
vt 0.065757445991039276 0.45124536752700806
vt 0.0098039219155907631 0.39599609375
vt 0.082146570086479187 0.53534287214279175
vt 0.019155023619532585 0.46393314003944397
vt 0.065757445991039276 0.45124536752700806
vt 0.19522880017757416 0.61868560314178467
vt 0.082146570086479187 0.53534287214279175
vt 0.14933526515960693 0.54447495937347412
vt 0.065757445991039276 0.45124536752700806
vt 0.14933526515960693 0.54447495937347412
vt 0.082146570086479187 0.53534287214279175
vt 0.14933526515960693 0.54447495937347412
vt 0.25461629033088684 0.66245478391647339
vt 0.19522880017757416 0.61868560314178467
vt 0.73777461051940918 0.049220915883779526
vt 0.38489940762519836 0.13745902478694916
vt 0.4748627245426178 0.10218869894742966
vt 0.22846312820911407 0.18604582548141479
vt 0.4748627245426178 0.10218869894742966
vt 0.38489940762519836 0.13745902478694916
vt 0.81394851207733154 0.0098039219155907631
vt 0.73777461051940918 0.049220915883779526
vt 0.4748627245426178 0.10218869894742966
vt 0.93069267272949219 0.0098039219155907631
vt 0.73917919397354126 0.048902418464422226
vt 0.81394851207733154 0.0098039219155907631
vt 0.73777461051940918 0.049220915883779526
vt 0.81394851207733154 0.0098039219155907631
vt 0.73917919397354126 0.048902418464422226
vt 0.14933526515960693 0.54447495937347412
vt 0.58199620246887207 0.79016941785812378
vt 0.25461629033088684 0.66245478391647339
vt 0.58313220739364624 0.79076874256134033
vt 0.25461629033088684 0.66245478391647339
vt 0.58199620246887207 0.79016941785812378
vt 0.22846312820911407 0.18604582548141479
vt 0.38489940762519836 0.13745902478694916
vt 0.22571653127670288 0.2094343900680542
vt 0.94415080547332764 0.99019604921340942
vt 0.58313220739364624 0.79076874256134033
vt 0.81503289937973022 0.90438073873519897
vt 0.81503289937973022 0.90438073873519897
vt 0.99019604921340942 0.99019604921340942
vt 0.94415080547332764 0.99019604921340942
vt 0.25461629033088684 0.66245478391647339
vt 0.58313220739364624 0.79076874256134033
vt 0.94415080547332764 0.99019604921340942
vn 0 -1 0
vn 0 -1 0
vn 0 -1 0
vn 0 -1 0
vn 0 -1 0
vn 0 -1 0
vn 0 -1 0
vn 0 -1 0
vn 0 -1 0
vn 0 -1 0
vn 0 -1 0
vn 0 -1 0
vn 0 -1 0
vn 0 -1 0
vn 0 -1 0
vn 0 -1 0
vn 0 -1 0
vn 0 -1 0
vn 0 -1 0
vn 0 -1 0
vn 0 -1 0
vn 0 -1 0
vn 0 -1 0
vn 0 -1 0
vn 0 -1 0
vn 0 -1 0
vn 0 -1 0
vn 0 -1 0
vn 0 -1 0
vn 0 -1 0
vn 0 -1 0
vn 0 -1 0
vn 0 -1 0
vn 0 -1 0
vn 0 -1 0
vn 0 -1 0
vn 0 -1 0
vn 0 -1 0
vn 0 -1 0
vn 0 -1 0
vn 0 -1 0
vn 0 -1 0
vn 0 -1 0
vn 0 -1 0
vn 0 -1 0
vn 0 -1 0
vn 0 -1 0
vn 0 -1 0
vn 0 -1 0
vn 0 -1 0
vn 0 -1 0
vn 0 -1 0
vn 0 -1 0
vn 0 -1 0
vn 0 -1 0
vn 0 -1 0
vn 0 -1 0
vn 0 -1 0
vn 0 -1 0
vn 0 -1 0
vn 0 -1 0
vn 0 -1 0
vn 0 -1 0
vn 0 -1 0
vn 0 -1 0
vn 0 -1 0
vn 0 -1 0
vn 0 -1 0
vn 0 -1 0
f 1/1/1 2/2/2 3/3/3
f 4/4/4 5/5/5 6/6/6
f 7/7/7 8/8/8 9/9/9
f 10/10/10 11/11/11 12/12/12
f 13/13/13 14/14/14 15/15/15
f 16/16/16 17/17/17 18/18/18
f 19/19/19 20/20/20 21/21/21
f 22/22/22 23/23/23 24/24/24
f 25/25/25 26/26/26 27/27/27
f 28/28/28 29/29/29 30/30/30
f 31/31/31 32/32/32 33/33/33
f 34/34/34 35/35/35 36/36/36
f 37/37/37 38/38/38 39/39/39
f 40/40/40 41/41/41 42/42/42
f 43/43/43 44/44/44 45/45/45
f 46/46/46 47/47/47 48/48/48
f 49/49/49 50/50/50 51/51/51
f 52/52/52 53/53/53 54/54/54
f 55/55/55 56/56/56 57/57/57
f 58/58/58 59/59/59 60/60/60
f 61/61/61 62/62/62 63/63/63
f 64/64/64 65/65/65 66/66/66
f 67/67/67 68/68/68 69/69/69
usemtl diffuse_0
v -362.49179077148437 0 -163.73625183105469
v -413.4573974609375 0 -247.21385192871094
v -274.279296875 0 -323.1131591796875
v -196.72579956054687 0 -264.94134521484375
vt 1 1
vt 0 1
vt 0 0
vt 1 0
vn 0 -1 0
vn 0 -1 0
vn 0 -1 0
vn 0 -1 0
f 70/70/70 71/71/71 72/72/72 73/73/73
usemtl diffuse_0
v 337.56039428710937 0 -188.42875671386719
v 310.96829223632812 0 -45.721248626708984
v 531.1798095703125 0 44.307750701904297
v 337.56039428710937 0 -188.42875671386719
v 678.3878173828125 0 -194.68135070800781
v 375.2659912109375 0 -255.09355163574219
v 678.3878173828125 0 -194.68135070800781
v 337.56039428710937 0 -188.42875671386719
v 531.1798095703125 0 44.307750701904297
v 531.1798095703125 0 44.307750701904297
v 750 0 -24.701148986816406
v 678.3878173828125 0 -194.68135070800781
v 678.3878173828125 0 -194.68135070800781
v 541.41162109375 0 -395.921142578125
v 375.2659912109375 0 -255.09355163574219
v 750 0 -24.701148986816406
v 531.1798095703125 0 44.307750701904297
v 750 0 -5.2158498764038086
vt 0.069186165928840637 0.52810937166213989
vt 0.0098039219155907631 0.21029900014400482
vt 0.50155341625213623 0.0098039219155907631
vt 0.069186165928840637 0.52810937166213989
vt 0.83028042316436768 0.54203397035598755
vt 0.1533857136964798 0.67657226324081421
vt 0.83028042316436768 0.54203397035598755
vt 0.069186165928840637 0.52810937166213989
vt 0.50155341625213623 0.0098039219155907631
vt 0.50155341625213623 0.0098039219155907631
vt 0.99019604921340942 0.16348712146282196
vt 0.83028042316436768 0.54203397035598755
vt 0.83028042316436768 0.54203397035598755
vt 0.52440184354782104 0.99019604921340942
vt 0.1533857136964798 0.67657226324081421
vt 0.99019604921340942 0.16348712146282196
vt 0.50155341625213623 0.0098039219155907631
vt 0.99019604921340942 0.12009324878454208
vn 0 1 0
vn 0 1 0
vn 0 1 0
vn 0 1 0
vn 0 1 0
vn 0 1 0
vn 0 1 0
vn 0 1 0
vn 0 1 0
vn 0 1 0
vn 0 1 0
vn 0 1 0
vn 0 1 0
vn 0 1 0
vn 0 1 0
vn 0 1 0
vn 0 1 0
vn 0 1 0
f 74/74/74 75/75/75 76/76/76
f 77/77/77 78/78/78 79/79/79
f 80/80/80 81/81/81 82/82/82
f 83/83/83 84/84/84 85/85/85
f 86/86/86 87/87/87 88/88/88
f 89/89/89 90/90/90 91/91/91
usemtl diffuse_0
v -438.069091796875 0 -233.79225158691406
v -387.5718994140625 0 -151.08175659179687
v -505.20318603515625 0 -101.55184936523437
v -519.48150634765625 0 -189.39485168457031
vt 1 1
vt 0 1
vt 0 0
vt 1 0
vn 0 -1 0
vn 0 -1 0
vn 0 -1 0
vn 0 -1 0
f 92/92/92 93/93/93 94/94/94 95/95/95
usemtl diffuse_0
v -82.953498840332031 0 402.72225952148437
v -87.435699462890625 0 407.20706176757812
v -224.77839660644531 0 224.73735046386719
v -423.86160278320312 0 60.606651306152344
v -224.77839660644531 0 224.73735046386719
v -87.435699462890625 0 407.20706176757812
v -327.26290893554687 0 8.6261501312255859
v -277.5535888671875 0 113.44895172119141
v -423.86160278320312 0 60.606651306152344
v -224.77839660644531 0 224.73735046386719
v -423.86160278320312 0 60.606651306152344
v -277.5535888671875 0 113.44895172119141
vt 0.0099993376061320305 0.068708449602127075
vt 0.0098039219155907631 0.0098039219155907631
vt 0.46971434354782104 0.27495107054710388
vt 0.99019604921340942 0.0098039219155907631
vt 0.46971434354782104 0.27495107054710388
vt 0.0098039219155907631 0.0098039219155907631
vt 0.92934304475784302 0.99019604921340942
vt 0.70640408992767334 0.64327365159988403
vt 0.99019604921340942 0.0098039219155907631
vt 0.46971434354782104 0.27495107054710388
vt 0.99019604921340942 0.0098039219155907631
vt 0.70640408992767334 0.64327365159988403
vn 0 -1 0
vn 0 -1 0
vn 0 -1 0
vn 0 -1 0
vn 0 -1 0
vn 0 -1 0
vn 0 -1 0
vn 0 -1 0
vn 0 -1 0
vn 0 -1 0
vn 0 -1 0
vn 0 -1 0
f 96/96/96 97/97/97 98/98/98
f 99/99/99 100/100/100 101/101/101
f 102/102/102 103/103/103 104/104/104
f 105/105/105 106/106/106 107/107/107
usemtl diffuse_0
v -749.9998779296875 0 451.56478881835938
v -693.290283203125 0 563.86297607421875
v -647.9224853515625 0 571.23101806640625
v -584.30078125 0 676.78955078125
v -647.9224853515625 0 571.23101806640625
v -693.290283203125 0 563.86297607421875
v -693.290283203125 0 563.86297607421875
v -749.9998779296875 0 451.56478881835938
v -749.9998779296875 0 505.104736328125
v -540.30023193359375 0 675.193359375
v -513.642822265625 0 750
v -462.86013793945312 0 750
v -647.9224853515625 0 571.23101806640625
v -584.30078125 0 676.78955078125
v -540.30023193359375 0 675.193359375
v -513.642822265625 0 750
v -540.30023193359375 0 675.193359375
v -584.30078125 0 676.78955078125
vt 0.0098039219155907631 0.99019604921340942
vt 0.20342966914176941 0.62128442525863647
vt 0.35833075642585754 0.59707951545715332
vt 0.57555663585662842 0.25030821561813354
vt 0.35833075642585754 0.59707951545715332
vt 0.20342966914176941 0.62128442525863647
vt 0.20342966914176941 0.62128442525863647
vt 0.0098039219155907631 0.99019604921340942
vt 0.0098039219155907631 0.81431150436401367
vt 0.72578936815261841 0.25555190443992615
vt 0.81680679321289063 0.0098039219155907631
vt 0.99019604921340942 0.0098039219155907631
vt 0.35833075642585754 0.59707951545715332
vt 0.57555663585662842 0.25030821561813354
vt 0.72578936815261841 0.25555190443992615
vt 0.81680679321289063 0.0098039219155907631
vt 0.72578936815261841 0.25555190443992615
vt 0.57555663585662842 0.25030821561813354
vn 0 1 0
vn 0 1 0
vn 0 1 0
vn 0 1 0
vn 0 1 0
vn 0 1 0
vn 0 1 0
vn 0 1 0
vn 0 1 0
vn 0 1 0
vn 0 1 0
vn 0 1 0
vn 0 1 0
vn 0 1 0
vn 0 1 0
vn 0 1 0
vn 0 1 0
vn 0 1 0
f 108/108/108 109/109/109 110/110/110
f 111/111/111 112/112/112 113/113/113
f 114/114/114 115/115/115 116/116/116
f 117/117/117 118/118/118 119/119/119
f 120/120/120 121/121/121 122/122/122
f 123/123/123 124/124/124 125/125/125
