# Rhino

mtllib parks_00164.mtl
usemtl diffuse_0
v -523.84954833984375 0 -3.4439065456390381
v -566.29144287109375 0 -33.990474700927734
v -546.09747314453125 0 7.5420260429382324
v -498.729736328125 0 3.4492697715759277
v -523.84954833984375 0 -3.4439065456390381
v -546.09747314453125 0 7.5420260429382324
v -523.51263427734375 0 -34.135425567626953
v -566.29144287109375 0 -33.990474700927734
v -523.84954833984375 0 -3.4439065456390381
v -489.2896728515625 0 22.553544998168945
v -498.729736328125 0 3.4492697715759277
v -546.09747314453125 0 7.5420260429382324
vt 0.55017679929733276 0.45940986275672913
vt 0.0098039219155907631 0.98768925666809082
vt 0.26691460609436035 0.26941660046577454
vt 0.87000423669815063 0.34019768238067627
vt 0.55017679929733276 0.45940986275672913
vt 0.26691460609436035 0.26941660046577454
vt 0.55446648597717285 0.99019604921340942
vt 0.0098039219155907631 0.98768925666809082
vt 0.55017679929733276 0.45940986275672913
vt 0.99019604921340942 0.0098039219155907631
vt 0.87000423669815063 0.34019768238067627
vt 0.26691460609436035 0.26941660046577454
vn 0 1 0
vn 0 1 0
vn 0 1 0
vn 0 1 0
vn 0 1 0
vn 0 1 0
vn 0 1 0
vn 0 1 0
vn 0 1 0
vn 0 1 0
vn 0 1 0
vn 0 1 0
f 1/1/1 2/2/2 3/3/3
f 4/4/4 5/5/5 6/6/6
f 7/7/7 8/8/8 9/9/9
f 10/10/10 11/11/11 12/12/12
usemtl diffuse_0
v 619.68206787109375 0 188.95491027832031
v 612.25335693359375 0 210.04217529296875
v 575.48602294921875 0 206.5548095703125
v 575.7108154296875 0 182.04623413085937
vt 1 1
vt 0 1
vt 0 0
vt 1 0
vn 0 -1 0
vn 0 -1 0
vn 0 -1 0
vn 0 -1 0
f 13/13/13 14/14/14 15/15/15 16/16/16
usemtl diffuse_0
v 86.638900756835938 0 365.12506103515625
v 81.061767578125 0 417.88442993164063
v 54.940387725830078 0 412.398193359375
v 89.854339599609375 0 369.54684448242187
v 81.061767578125 0 417.88442993164063
v 86.638900756835938 0 365.12506103515625
v 64.960037231445312 0 361.85128784179687
v 86.638900756835938 0 365.12506103515625
v 54.940387725830078 0 412.398193359375
vt 0.99019604921340942 0.81432086229324341
vt 0.0098039219155907631 0.99019604921340942
vt 0.015415789559483528 0.0098039219155907631
vt 0.92131620645523071 0.96176230907440186
vt 0.0098039219155907631 0.99019604921340942
vt 0.99019604921340942 0.81432086229324341
vt 0.97156709432601929 0.0098039219155907631
vt 0.99019604921340942 0.81432086229324341
vt 0.015415789559483528 0.0098039219155907631
vn 0 -1 0
vn 0 -1 0
vn 0 -1 0
vn 0 -1 0
vn 0 -1 0
vn 0 -1 0
vn 0 -1 0
vn 0 -1 0
vn 0 -1 0
f 17/17/17 18/18/18 19/19/19
f 20/20/20 21/21/21 22/22/22
f 23/23/23 24/24/24 25/25/25
usemtl diffuse_0
v 335.16217041015625 0 191.58256530761719
v 306.54940795898437 0 190.99398803710937
v 337.54922485351562 0 174.51422119140625
v 302.27047729492187 0 167.45991516113281
v 337.54922485351562 0 174.51422119140625
v 306.54940795898437 0 190.99398803710937
v 459.61740112304688 0 183.85386657714844
v 335.16217041015625 0 191.58256530761719
v 337.54922485351562 0 174.51422119140625
v 459.61740112304688 0 183.85386657714844
v 462.69143676757812 0 164.28883361816406
v 543.7554931640625 0 177.02548217773437
v 457.804443359375 0 195.39274597167969
v 459.61740112304688 0 183.85386657714844
v 543.7554931640625 0 177.02548217773437
v 459.61740112304688 0 183.85386657714844
v 457.804443359375 0 195.39274597167969
v 335.16217041015625 0 191.58256530761719
v 543.512451171875 0 203.52212524414062
v 457.804443359375 0 195.39274597167969
v 543.7554931640625 0 177.02548217773437
v 459.61740112304688 0 183.85386657714844
v 337.54922485351562 0 174.51422119140625
v 338.60977172851562 0 166.93069458007812
vt 0.14333917200565338 0.6918410062789917
vt 0.027175690978765488 0.67713326215744019
vt 0.15303020179271698 0.26532381772994995
vt 0.0098039219155907631 0.089045144617557526
vt 0.15303020179271698 0.26532381772994995
vt 0.027175690978765488 0.67713326215744019
vt 0.64860832691192627 0.49870994687080383
vt 0.14333917200565338 0.6918410062789917
vt 0.15303020179271698 0.26532381772994995
vt 0.64860832691192627 0.49870994687080383
vt 0.66108834743499756 0.0098039219155907631
vt 0.99019604921340942 0.32807692885398865
vt 0.64124792814254761 0.78705281019210815
vt 0.64860832691192627 0.49870994687080383
vt 0.99019604921340942 0.32807692885398865
vt 0.64860832691192627 0.49870994687080383
vt 0.64124792814254761 0.78705281019210815
vt 0.14333917200565338 0.6918410062789917
vt 0.98920935392379761 0.99019604921340942
vt 0.64124792814254761 0.78705281019210815
vt 0.99019604921340942 0.32807692885398865
vt 0.64860832691192627 0.49870994687080383
vt 0.15303020179271698 0.26532381772994995
vt 0.15733596682548523 0.075820691883563995
vn 0 -1 0
vn 0 -1 0
vn 0 -1 0
vn 0 -1 0
vn 0 -1 0
vn 0 -1 0
vn 0 -1 0
vn 0 -1 0
vn 0 -1 0
vn 0 -1 0
vn 0 -1 0
vn 0 -1 0
vn 0 -1 0
vn 0 -1 0
vn 0 -1 0
vn 0 -1 0
vn 0 -1 0
vn 0 -1 0
vn 0 -1 0
vn 0 -1 0
vn 0 -1 0
vn 0 -1 0
vn 0 -1 0
vn 0 -1 0
f 26/26/26 27/27/27 28/28/28
f 29/29/29 30/30/30 31/31/31
f 32/32/32 33/33/33 34/34/34
f 35/35/35 36/36/36 37/37/37
f 38/38/38 39/39/39 40/40/40
f 41/41/41 42/42/42 43/43/43
f 44/44/44 45/45/45 46/46/46
f 47/47/47 48/48/48 49/49/49
usemtl diffuse_0
v 517.754638671875 0 89.417877197265625
v 517.1036376953125 0 83.9273681640625
v 537.95574951171875 0 92.452323913574219
vt 0 1
vt 0 0
vt 1 0
vn 0 -1 0
vn 0 -1 0
vn 0 -1 0
f 50/50/50 51/51/51 52/52/52
usemtl diffuse_0
v 484.97149658203125 0 617.2608642578125
v 510.84451293945313 0 629.76507568359375
v 571.19970703125 0 577.5665283203125
v 453.90188598632812 0 595.47357177734375
vt 1 1
vt 0 1
vt 0 0
vt 1 0
vn 0 1 0
vn 0 1 0
vn 0 1 0
vn 0 1 0
f 53/53/53 54/54/54 55/55/55 56/56/56
usemtl diffuse_0
v -278.98748779296875 0 63.7491455078125
v -271.19287109375 0 80.185813903808594
v -245.22128295898437 0 87.048828125
v -226.475341796875 0 78.159095764160156
vt 1 1
vt 0 1
vt 0 0
vt 1 0
vn 0 1 0
vn 0 1 0
vn 0 1 0
vn 0 1 0
f 57/57/57 58/58/58 59/59/59 60/60/60
usemtl diffuse_0
v -157.44570922851563 0 -82.753974914550781
v -133.73828125 0 -35.698013305664063
v -108.39086151123047 0 -67.195335388183594
v -167.52021789550781 0 -45.016849517822266
v -133.73828125 0 -35.698013305664063
v -157.44570922851563 0 -82.753974914550781
v -155.36334228515625 0 -83.87451171875
v -157.44570922851563 0 -82.753974914550781
v -108.39086151123047 0 -67.195335388183594
vt 0.99019604921340942 0.052039090543985367
vt 0.26421323418617249 0.92941689491271973
vt 0.0098039219155907631 0.0098039219155907631
vt 0.93046426773071289 0.99019604921340942
vt 0.26421323418617249 0.92941689491271973
vt 0.99019604921340942 0.052039090543985367
vt 0.95993846654891968 0.0098039219155907631
vt 0.99019604921340942 0.052039090543985367
vt 0.0098039219155907631 0.0098039219155907631
vn 0 1 0
vn 0 1 0
vn 0 1 0
vn 0 1 0
vn 0 1 0
vn 0 1 0
vn 0 1 0
vn 0 1 0
vn 0 1 0
f 61/61/61 62/62/62 63/63/63
f 64/64/64 65/65/65 66/66/66
f 67/67/67 68/68/68 69/69/69
usemtl diffuse_0
v 230.74421691894531 0 391.35848999023437
v 157.57987976074219 0 380.30978393554687
v 158.37564086914063 0 375.95816040039062
v 230.8577880859375 0 386.90383911132812
v 230.63066101074219 0 395.81314086914062
v 156.78411865234375 0 384.66140747070312
v 157.57987976074219 0 380.30978393554687
v 230.74421691894531 0 391.35848999023437
v 303.9085693359375 0 402.40716552734375
v 230.74421691894531 0 391.35848999023437
v 230.8577880859375 0 386.90383911132812
v 303.33993530273437 0 397.84951782226562
v 304.47720336914062 0 406.96484375
v 230.63066101074219 0 395.81314086914062
v 230.74421691894531 0 391.35848999023437
v 303.9085693359375 0 402.40716552734375
vt 0.5 0.5
vt 0 0.5
vt 0 0
vt 0.5 0
vt 0.5 1
vt 0 1
vt 0 0.5
vt 0.5 0.5
vt 1 0.5
vt 0.5 0.5
vt 0.5 0
vt 1 0
vt 1 1
vt 0.5 1
vt 0.5 0.5
vt 1 0.5
vn 0 -1 0
vn 0 -1 0
vn 0 -1 0
vn 0 -1 0
vn 0 -1 0
vn 0 -1 0
vn 0 -1 0
vn 0 -1 0
vn 0 -1 0
vn 0 -1 0
vn 0 -1 0
vn 0 -1 0
vn 0 -1 0
vn 0 -1 0
vn 0 -1 0
vn 0 -1 0
f 70/70/70 71/71/71 72/72/72 73/73/73
f 74/74/74 75/75/75 76/76/76 77/77/77
f 78/78/78 79/79/79 80/80/80 81/81/81
f 82/82/82 83/83/83 84/84/84 85/85/85
usemtl diffuse_0
v 196.4769287109375 0 167.60162353515625
v 262.97512817382812 0 190.09765625
v 193.46556091308594 0 184.06927490234375
v 268.51876831054687 0 160.7109375
v 273.90264892578125 0 190.32243347167969
v 196.4769287109375 0 167.60162353515625
v 262.97512817382812 0 190.09765625
v 196.4769287109375 0 167.60162353515625
v 273.90264892578125 0 190.32243347167969
v 200.23388671875 0 147.05674743652344
v 268.51876831054687 0 160.7109375
v 196.4769287109375 0 167.60162353515625
v 196.4769287109375 0 167.60162353515625
v 193.46556091308594 0 184.06927490234375
v 48.707710266113281 0 145.45425415039062
v 0.017051821574568748 0 132.52996826171875
v 48.707710266113281 0 145.45425415039062
v 1.1688823699951172 0 148.5379638671875
v 48.707710266113281 0 145.45425415039062
v 51.911041259765625 0 133.38609313964844
v 196.4769287109375 0 167.60162353515625
v 1.1688823699951172 0 148.5379638671875
v 48.707710266113281 0 145.45425415039062
v 193.46556091308594 0 184.06927490234375
vt 0.29101809859275818 0.44600114226341248
vt 0.047595039010047913 0.1844237893819809
vt 0.29090985655784607 0.0098039219155907631
vt 0.047203104943037033 0.96362650394439697
vt 0.0098039219155907631 0.23039892315864563
vt 0.29101809859275818 0.44600114226341248
vt 0.047595039010047913 0.1844237893819809
vt 0.29101809859275818 0.44600114226341248
vt 0.0098039219155907631 0.23039892315864563
vt 0.29115310311317444 0.99019604921340942
vt 0.047203104943037033 0.96362650394439697
vt 0.29101809859275818 0.44600114226341248
vt 0.29101809859275818 0.44600114226341248
vt 0.29090985655784607 0.0098039219155907631
vt 0.81421756744384766 0.3138805627822876
vt 0.99019604921340942 0.41451343894004822
vt 0.81421756744384766 0.3138805627822876
vt 0.97603720426559448 0.0098039219155907631
vt 0.81421756744384766 0.3138805627822876
vt 0.81086373329162598 0.63826119899749756
vt 0.29101809859275818 0.44600114226341248
vt 0.97603720426559448 0.0098039219155907631
vt 0.81421756744384766 0.3138805627822876
vt 0.29090985655784607 0.0098039219155907631
vn 0 -1 0
vn 0 -1 0
vn 0 -1 0
vn 0 -1 0
vn 0 -1 0
vn 0 -1 0
vn 0 -1 0
vn 0 -1 0
vn 0 -1 0
vn 0 -1 0
vn 0 -1 0
vn 0 -1 0
vn 0 -1 0
vn 0 -1 0
vn 0 -1 0
vn 0 -1 0
vn 0 -1 0
vn 0 -1 0
vn 0 -1 0
vn 0 -1 0
vn 0 -1 0
vn 0 -1 0
vn 0 -1 0
vn 0 -1 0
f 86/86/86 87/87/87 88/88/88
f 89/89/89 90/90/90 91/91/91
f 92/92/92 93/93/93 94/94/94
f 95/95/95 96/96/96 97/97/97
f 98/98/98 99/99/99 100/100/100
f 101/101/101 102/102/102 103/103/103
f 104/104/104 105/105/105 106/106/106
f 107/107/107 108/108/108 109/109/109
usemtl diffuse_0
v 446.84530639648437 0 428.46414184570312
v 337.3446044921875 0 411.92822265625
v 336.20730590820312 0 402.81289672851562
v 447.64190673828125 0 419.64083862304687
v 446.84530639648437 0 428.46414184570312
v 336.20730590820312 0 402.81289672851562
v 446.84530639648437 0 428.46414184570312
v 447.64190673828125 0 419.64083862304687
v 545.45916748046875 0 454.2408447265625
v 570.73931884765625 0 451.81732177734375
v 545.45916748046875 0 454.2408447265625
v 447.64190673828125 0 419.64083862304687
vt 0.47491887211799622 0.42908695340156555
vt 0.023755999282002449 0.99019604921340942
vt 0.0098039219155907631 0.58082282543182373
vt 0.4689348042011261 0.0098039219155907631
vt 0.47491887211799622 0.42908695340156555
vt 0.0098039219155907631 0.58082282543182373
vt 0.47491887211799622 0.42908695340156555
vt 0.4689348042011261 0.0098039219155907631
vt 0.89250355958938599 0.42908695340156555
vt 0.99019604921340942 0.0098039219155907631
vt 0.89250355958938599 0.42908695340156555
vt 0.4689348042011261 0.0098039219155907631
vn 0 -1 0
vn 0 -1 0
vn 0 -1 0
vn 0 -1 0
vn 0 -1 0
vn 0 -1 0
vn 0 -1 0
vn 0 -1 0
vn 0 -1 0
vn 0 -1 0
vn 0 -1 0
vn 0 -1 0
f 110/110/110 111/111/111 112/112/112
f 113/113/113 114/114/114 115/115/115
f 116/116/116 117/117/117 118/118/118
f 119/119/119 120/120/120 121/121/121
usemtl diffuse_0
v 750 0 524.0140380859375
v 750 0 528.85748291015625
v 623.846923828125 0 474.98931884765625
v 630.515869140625 0 472.9935302734375
v 750 0 519.17059326171875
v 750 0 524.0140380859375
v 630.515869140625 0 472.9935302734375
v 637.18475341796875 0 470.99777221679687
vt 0.5 1
vt 0 1
vt 0 0
vt 0.5 0
vt 1 1
vt 0.5 1
vt 0.5 0
vt 1 0
vn 0 -1 0
vn 0 -1 0
vn 0 -1 0
vn 0 -1 0
vn 0 -1 0
vn 0 -1 0
vn 0 -1 0
vn 0 -1 0
f 122/122/122 123/123/123 124/124/124 125/125/125
f 126/126/126 127/127/127 128/128/128 129/129/129
usemtl diffuse_0
v -357.13995361328125 0 -167.00372314453125
v -361.55352783203125 0 -184.07058715820313
v -350.48837280273437 0 -187.81782531738281
v -351.7880859375 0 -170.27117919921875
v -362.49179077148437 0 -163.73625183105469
v -372.61871337890625 0 -180.32334899902344
v -361.55352783203125 0 -184.07058715820313
v -357.13995361328125 0 -167.00372314453125
vt 1 0.5
vt 0 0.5
vt 0 0
vt 1 0
vt 1 1
vt 0 1
vt 0 0.5
vt 1 0.5
vn 0 -1 0
vn 0 -1 0
vn 0 -1 0
vn 0 -1 0
vn 0 -1 0
vn 0 -1 0
vn 0 -1 0
vn 0 -1 0
f 130/130/130 131/131/131 132/132/132 133/133/133
f 134/134/134 135/135/135 136/136/136 137/137/137
usemtl diffuse_0
v 531.1798095703125 0 44.307750701904297
v 512.64251708984375 0 36.729167938232422
v 512.5150146484375 0 34.990062713623047
v 541.84136962890625 0 41.894805908203125
vt 1 1
vt 0 1
vt 0 0
vt 1 0
vn 0 -1 0
vn 0 -1 0
vn 0 -1 0
vn 0 -1 0
f 138/138/138 139/139/139 140/140/140 141/141/141
usemtl diffuse_0
v 577.761474609375 0 -224.39312744140625
v 578.883056640625 0 -238.444091796875
v 597.61004638671875 0 -236.613037109375
v 597.154052734375 0 -224.19540405273437
v 576.63983154296875 0 -210.34217834472656
v 577.761474609375 0 -224.39312744140625
v 597.154052734375 0 -224.19540405273437
v 596.69805908203125 0 -211.77777099609375
vt 0.5 1
vt 0 1
vt 0 0
vt 0.5 0
vt 1 1
vt 0.5 1
vt 0.5 0
vt 1 0
vn 0 -1 0
vn 0 -1 0
vn 0 -1 0
vn 0 -1 0
vn 0 -1 0
vn 0 -1 0
vn 0 -1 0
vn 0 -1 0
f 142/142/142 143/143/143 144/144/144 145/145/145
f 146/146/146 147/147/147 148/148/148 149/149/149
usemtl diffuse_0
v -452.27548217773437 0 16.196866989135742
v -433.34066772460937 0 29.368608474731445
v -423.5245361328125 0 24.086467742919922
v -433.34066772460937 0 29.368608474731445
v -452.27548217773437 0 16.196866989135742
v -443.15679931640625 0 34.650749206542969
vt 1 0
vt 0 0.5
vt 0 0
vt 0 0.5
vt 1 0
vt 0 1
vn 0 1 0
vn 0 1 0
vn 0 1 0
vn 0 1 0
vn 0 1 0
vn 0 1 0
f 150/150/150 151/151/151 152/152/152
f 153/153/153 154/154/154 155/155/155
usemtl diffuse_0
v -330.22149658203125 0 -73.257659912109375
v -267.34454345703125 0 -93.545501708984375
v -270.11801147460937 0 -62.835838317871094
v -267.34454345703125 0 -93.545501708984375
v -330.22149658203125 0 -73.257659912109375
v -326.18661499023437 0 -99.973876953125
v -329.19677734375 0 -69.977897644042969
v -330.22149658203125 0 -73.257659912109375
v -270.11801147460937 0 -62.835838317871094
vt 0.99019604921340942 0.10946574807167053
vt 0.024806767702102661 0.99019604921340942
vt 0.0098039219155907631 0.0098039219155907631
vt 0.024806767702102661 0.99019604921340942
vt 0.99019604921340942 0.10946574807167053
vt 0.97733217477798462 0.96856153011322021
vt 0.96748936176300049 0.0098039219155907631
vt 0.99019604921340942 0.10946574807167053
vt 0.0098039219155907631 0.0098039219155907631
vn 0 -1 0
vn 0 -1 0
vn 0 -1 0
vn 0 -1 0
vn 0 -1 0
vn 0 -1 0
vn 0 -1 0
vn 0 -1 0
vn 0 -1 0
f 156/156/156 157/157/157 158/158/158
f 159/159/159 160/160/160 161/161/161
f 162/162/162 163/163/163 164/164/164
usemtl diffuse_0
v 587.330810546875 0 -411.73016357421875
v 600.445556640625 0 -402.46136474609375
v 592.79669189453125 0 -377.29855346679687
v 579.7421875 0 -396.47772216796875
v 594.91943359375 0 -426.98263549804687
v 608.0943603515625 0 -427.62417602539062
v 600.445556640625 0 -402.46136474609375
v 587.330810546875 0 -411.73016357421875
v 574.21612548828125 0 -420.99896240234375
v 587.330810546875 0 -411.73016357421875
v 579.7421875 0 -396.47772216796875
v 566.68768310546875 0 -415.6568603515625
v 581.7445068359375 0 -426.34109497070312
v 594.91943359375 0 -426.98263549804687
v 587.330810546875 0 -411.73016357421875
v 574.21612548828125 0 -420.99896240234375
vt 0.5 0.5
vt 0 0.5
vt 0 0
vt 0.5 0
vt 0.5 1
vt 0 1
vt 0 0.5
vt 0.5 0.5
vt 1 0.5
vt 0.5 0.5
vt 0.5 0
vt 1 0
vt 1 1
vt 0.5 1
vt 0.5 0.5
vt 1 0.5
vn 0 -1 0
vn 0 -1 0
vn 0 -1 0
vn 0 -1 0
vn 0 -1 0
vn 0 -1 0
vn 0 -1 0
vn 0 -1 0
vn 0 -1 0
vn 0 -1 0
vn 0 -1 0
vn 0 -1 0
vn 0 -1 0
vn 0 -1 0
vn 0 -1 0
vn 0 -1 0
f 165/165/165 166/166/166 167/167/167 168/168/168
f 169/169/169 170/170/170 171/171/171 172/172/172
f 173/173/173 174/174/174 175/175/175 176/176/176
f 177/177/177 178/178/178 179/179/179 180/180/180
usemtl diffuse_0
v -157.99362182617187 0 103.55231475830078
v -152.62812805175781 0 98.42364501953125
v -196.90823364257812 0 86.272659301757813
v -206.07778930664062 0 90.621063232421875
v -109.90946197509766 0 116.48355865478516
v -108.3480224609375 0 110.57463073730469
v -152.62812805175781 0 98.42364501953125
v -157.99362182617187 0 103.55231475830078
v -163.359130859375 0 108.68097686767578
v -157.99362182617187 0 103.55231475830078
v -206.07778930664062 0 90.621063232421875
v -215.24734497070312 0 94.969467163085937
v -111.47090148925781 0 122.39248657226562
v -109.90946197509766 0 116.48355865478516
v -157.99362182617187 0 103.55231475830078
v -163.359130859375 0 108.68097686767578
vt 0.5 0.5
vt 0 0.5
vt 0 0
vt 0.5 0
vt 0.5 1
vt 0 1
vt 0 0.5
vt 0.5 0.5
vt 1 0.5
vt 0.5 0.5
vt 0.5 0
vt 1 0
vt 1 1
vt 0.5 1
vt 0.5 0.5
vt 1 0.5
vn 0 1 0
vn 0 1 0
vn 0 1 0
vn 0 1 0
vn 0 1 0
vn 0 1 0
vn 0 1 0
vn 0 1 0
vn 0 1 0
vn 0 1 0
vn 0 1 0
vn 0 1 0
vn 0 1 0
vn 0 1 0
vn 0 1 0
vn 0 1 0
f 181/181/181 182/182/182 183/183/183 184/184/184
f 185/185/185 186/186/186 187/187/187 188/188/188
f 189/189/189 190/190/190 191/191/191 192/192/192
f 193/193/193 194/194/194 195/195/195 196/196/196
usemtl diffuse_0
v -37.860397338867187 0 141.32638549804687
v -31.346183776855469 0 142.53004455566406
v -32.690391540527344 0 123.84822082519531
v -35.988040924072266 0 122.97290802001953
v -44.374610900878906 0 140.12274169921875
v -37.860397338867187 0 141.32638549804687
v -35.988040924072266 0 122.97290802001953
v -39.285690307617188 0 122.09759521484375
vt 0.5 1
vt 0 1
vt 0 0
vt 0.5 0
vt 1 1
vt 0.5 1
vt 0.5 0
vt 1 0
vn 0 1 0
vn 0 1 0
vn 0 1 0
vn 0 1 0
vn 0 1 0
vn 0 1 0
vn 0 1 0
vn 0 1 0
f 197/197/197 198/198/198 199/199/199 200/200/200
f 201/201/201 202/202/202 203/203/203 204/204/204
usemtl diffuse_0
v -344.42919921875 0 53.326389312744141
v -341.61734008789062 0 46.562774658203125
v -378.80093383789062 0 36.359157562255859
v -388.39212036132812 0 41.520244598388672
v -300.46630859375 0 65.132530212402344
v -304.4337158203125 0 56.766395568847656
v -341.61734008789062 0 46.562774658203125
v -344.42919921875 0 53.326389312744141
v -347.2410888671875 0 60.090003967285156
v -344.42919921875 0 53.326389312744141
v -388.39212036132812 0 41.520244598388672
v -397.98330688476562 0 46.68133544921875
v -296.4989013671875 0 73.498672485351563
v -300.46630859375 0 65.132530212402344
v -344.42919921875 0 53.326389312744141
v -347.2410888671875 0 60.090003967285156
vt 0.5 0.5
vt 0 0.5
vt 0 0
vt 0.5 0
vt 0.5 1
vt 0 1
vt 0 0.5
vt 0.5 0.5
vt 1 0.5
vt 0.5 0.5
vt 0.5 0
vt 1 0
vt 1 1
vt 0.5 1
vt 0.5 0.5
vt 1 0.5
vn 0 1 0
vn 0 1 0
vn 0 1 0
vn 0 1 0
vn 0 1 0
vn 0 1 0
vn 0 1 0
vn 0 1 0
vn 0 1 0
vn 0 1 0
vn 0 1 0
vn 0 1 0
vn 0 1 0
vn 0 1 0
vn 0 1 0
vn 0 1 0
f 205/205/205 206/206/206 207/207/207 208/208/208
f 209/209/209 210/210/210 211/211/211 212/212/212
f 213/213/213 214/214/214 215/215/215 216/216/216
f 217/217/217 218/218/218 219/219/219 220/220/220
