# Rhino

mtllib parks_00102.mtl
usemtl diffuse_0
v -38.847682952880859 0 -170.29383850097656
v -3.292593240737915 0 -234.88629150390625
v -149.97740173339844 0 -315.62936401367187
v -185.53250122070312 0 -251.03689575195312
v -74.40277099609375 0 -105.70138549804687
v -38.847682952880859 0 -170.29383850097656
v -185.53250122070312 0 -251.03689575195312
v -221.08760070800781 0 -186.44444274902344
vt 1 0.5
vt 1 0
vt 0 0
vt 0 0.5
vt 1 1
vt 1 0.5
vt 0 0.5
vt 0 1
vn 0 1 0
vn 0 1 0
vn 0 1 0
vn 0 1 0
vn 0 1 0
vn 0 1 0
vn 0 1 0
vn 0 1 0
f 1/1/1 2/2/2 3/3/3 4/4/4
f 5/5/5 6/6/6 7/7/7 8/8/8
usemtl diffuse_0
v -497.35696411132812 0 352.05044555664062
v -502.80068969726562 0 392.40066528320312
v -531.1304931640625 0 376.80645751953125
v -512.81866455078125 0 343.53955078125
v -491.9132080078125 0 311.70025634765625
v -497.35696411132812 0 352.05044555664062
v -512.81866455078125 0 343.53955078125
v -494.50680541992187 0 310.27264404296875
vt 1 0.5
vt 1 0
vt 0 0
vt 0 0.5
vt 1 1
vt 1 0.5
vt 0 0.5
vt 0 1
vn 0 -1 0
vn 0 -1 0
vn 0 -1 0
vn 0 -1 0
vn 0 -1 0
vn 0 -1 0
vn 0 -1 0
vn 0 -1 0
f 9/9/9 10/10/10 11/11/11 12/12/12
f 13/13/13 14/14/14 15/15/15 16/16/16
usemtl diffuse_0
v -458.10848999023437 0 135.92594909667969
v -468.40438842773437 0 211.59053039550781
v -451.34774780273437 0 180.31343078613281
v -451.34774780273437 0 180.31343078613281
v -434.29110717773437 0 149.03634643554687
v -458.10848999023437 0 135.92594909667969
vt 1 0
vt 0 0
vt 0 0.5
vt 0 0.5
vt 0 1
vt 1 0
vn 0 1 0
vn 0 1 0
vn 0 1 0
vn 0 1 0
vn 0 1 0
vn 0 1 0
f 17/17/17 18/18/18 19/19/19
f 20/20/20 21/21/21 22/22/22
