# Rhino

mtllib parks_00184.mtl
usemtl diffuse_0
v -96.207603454589844 0 -263.8836669921875
v -167.37460327148437 0 -309.94577026367187
v -154.90020751953125 0 -332.60781860351562
v -81.573211669921875 0 -292.24478149414062
v -110.84199523925781 0 -235.52253723144531
v -179.84898376464844 0 -287.28372192382812
v -167.37460327148437 0 -309.94577026367187
v -96.207603454589844 0 -263.8836669921875
v -25.040603637695313 0 -217.82154846191406
v -96.207603454589844 0 -263.8836669921875
v -81.573211669921875 0 -292.24478149414062
v -8.2462053298950195 0 -251.88172912597656
v -41.834999084472656 0 -183.7613525390625
v -110.84199523925781 0 -235.52253723144531
v -96.207603454589844 0 -263.8836669921875
v -25.040603637695313 0 -217.82154846191406
vt 0.5 0.5
vt 0 0.5
vt 0 0
vt 0.5 0
vt 0.5 1
vt 0 1
vt 0 0.5
vt 0.5 0.5
vt 1 0.5
vt 0.5 0.5
vt 0.5 0
vt 1 0
vt 1 1
vt 0.5 1
vt 0.5 0.5
vt 1 0.5
vn 0 -1 0
vn 0 -1 0
vn 0 -1 0
vn 0 -1 0
vn 0 -1 0
vn 0 -1 0
vn 0 -1 0
vn 0 -1 0
vn 0 -1 0
vn 0 -1 0
vn 0 -1 0
vn 0 -1 0
vn 0 -1 0
vn 0 -1 0
vn 0 -1 0
vn 0 -1 0
f 1/1/1 2/2/2 3/3/3 4/4/4
f 5/5/5 6/6/6 7/7/7 8/8/8
f 9/9/9 10/10/10 11/11/11 12/12/12
f 13/13/13 14/14/14 15/15/15 16/16/16
usemtl diffuse_0
v -462.44668579101562 0 130.68424987792969
v -463.01681518554687 0 134.91009521484375
v -433.77154541015625 0 174.0140380859375
v -422.13494873046875 0 152.87396240234375
vt 1 1
vt 1 0
vt 0 0
vt 0 1
vn 0 1 0
vn 0 1 0
vn 0 1 0
vn 0 1 0
f 17/17/17 18/18/18 19/19/19 20/20/20
usemtl diffuse_0
v -64.728080749511719 0 -123.27725982666016
v -101.16718292236328 0 -117.58028411865234
v -88.387741088867188 0 -110.54579925537109
v -88.387741088867188 0 -110.54579925537109
v -75.608291625976563 0 -103.51132202148437
v -64.728080749511719 0 -123.27725982666016
v -101.16718292236328 0 -117.58028411865234
v -64.728080749511719 0 -123.27725982666016
v -53.847869873046875 0 -143.04319763183594
vt 0.5 0.5
vt 0 0
vt 0 0.5
vt 0 0.5
vt 0 1
vt 0.5 0.5
vt 0 0
vt 0.5 0.5
vt 1 0
vn 0 1 0
vn 0 1 0
vn 0 1 0
vn 0 1 0
vn 0 1 0
vn 0 1 0
vn 0 1 0
vn 0 1 0
vn 0 1 0
f 21/21/21 22/22/22 23/23/23
f 24/24/24 25/25/25 26/26/26
f 27/27/27 28/28/28 29/29/29
usemtl diffuse_0
v -191.53733825683594 0 -266.04965209960937
v -192.74406433105469 0 -263.85739135742187
v -191.6058349609375 0 -264.55233764648437
v -191.6058349609375 0 -264.55233764648437
v -190.46760559082031 0 -265.24725341796875
v -191.53733825683594 0 -266.04965209960937
vt 1 0
vt 0 0
vt 0 0.5
vt 0 0.5
vt 0 1
vt 1 0
vn 0 1 0
vn 0 1 0
vn 0 1 0
vn 0 1 0
vn 0 1 0
vn 0 1 0
f 30/30/30 31/31/31 32/32/32
f 33/33/33 34/34/34 35/35/35
usemtl diffuse_0
v -214.11456298828125 0 -225.03388977050781
v -134.24555969238281 0 -223.07594299316406
v -171.52310180664062 0 -251.03724670410156
v -214.11456298828125 0 -225.03388977050781
v -233.24374389648437 0 -190.28218078613281
v -179.72386169433594 0 -160.822021484375
v -179.72386169433594 0 -160.822021484375
v -134.24555969238281 0 -223.07594299316406
v -214.11456298828125 0 -225.03388977050781
v -92.947242736816406 0 -149.25759887695312
v -59.690498352050781 0 -167.15335083007812
v -96.968032836914063 0 -195.11465454101562
v -179.72386169433594 0 -160.822021484375
v -126.20399475097656 0 -131.36186218261719
v -96.968032836914063 0 -195.11465454101562
v -92.947242736816406 0 -149.25759887695312
v -96.968032836914063 0 -195.11465454101562
v -126.20399475097656 0 -131.36186218261719
v -134.24555969238281 0 -223.07594299316406
v -179.72386169433594 0 -160.822021484375
v -96.968032836914063 0 -195.11465454101562
vt 0.0098039219155907631 0.5405266284942627
vt 0.41287216544151306 0.0098039219155907631
vt 0.12421023100614548 0.0098039219155907631
vt 0.0098039219155907631 0.5405266284942627
vt 0.044182918965816498 0.99019604921340942
vt 0.41890504956245422 0.89234739542007446
vt 0.41890504956245422 0.89234739542007446
vt 0.41287216544151306 0.0098039219155907631
vt 0.0098039219155907631 0.5405266284942627
vt 0.89191162586212158 0.40215131640434265
vt 0.99019604921340942 0.0098039219155907631
vt 0.70153415203094482 0.0098039219155907631
vt 0.41890504956245422 0.89234739542007446
vt 0.79362714290618896 0.7944987416267395
vt 0.70153415203094482 0.0098039219155907631
vt 0.89191162586212158 0.40215131640434265
vt 0.70153415203094482 0.0098039219155907631
vt 0.79362714290618896 0.7944987416267395
vt 0.41287216544151306 0.0098039219155907631
vt 0.41890504956245422 0.89234739542007446
vt 0.70153415203094482 0.0098039219155907631
vn 0 1 0
vn 0 1 0
vn 0 1 0
vn 0 1 0
vn 0 1 0
vn 0 1 0
vn 0 1 0
vn 0 1 0
vn 0 1 0
vn 0 1 0
vn 0 1 0
vn 0 1 0
vn 0 1 0
vn 0 1 0
vn 0 1 0
vn 0 1 0
vn 0 1 0
vn 0 1 0
vn 0 1 0
vn 0 1 0
vn 0 1 0
f 36/36/36 37/37/37 38/38/38
f 39/39/39 40/40/40 41/41/41
f 42/42/42 43/43/43 44/44/44
f 45/45/45 46/46/46 47/47/47
f 48/48/48 49/49/49 50/50/50
f 51/51/51 52/52/52 53/53/53
f 54/54/54 55/55/55 56/56/56
