# Rhino

mtllib parks_00140.mtl
usemtl diffuse_0
v -460.78671264648437 0 223.09213256835937
v -472.82931518554687 0 207.64276123046875
v -454.11590576171875 0 173.64634704589844
v -472.82931518554687 0 207.64276123046875
v -472.40707397460937 0 244.20263671875
v -477.39154052734375 0 241.45892333984375
v -460.78671264648437 0 223.09213256835937
v -472.40707397460937 0 244.20263671875
v -472.82931518554687 0 207.64276123046875
vt 0.6857268214225769 0.0098039219155907631
vt 0.50012201070785522 0.99019539356231689
vt 0.0098039219155907631 0.0098039219155907631
vt 0.50012201070785522 0.99019539356231689
vt 0.99019604921340942 0.61858993768692017
vt 0.96238821744918823 0.99019604921340942
vt 0.6857268214225769 0.0098039219155907631
vt 0.99019604921340942 0.61858993768692017
vt 0.50012201070785522 0.99019539356231689
vn 0 -1 0
vn 0 -1 0
vn 0 -1 0
vn 0 -1 0
vn 0 -1 0
vn 0 -1 0
vn 0 -1 0
vn 0 -1 0
vn 0 -1 0
f 1/1/1 2/2/2 3/3/3
f 4/4/4 5/5/5 6/6/6
f 7/7/7 8/8/8 9/9/9
usemtl diffuse_0
v -38.365459442138672 0 -171.16989135742187
v -180.2320556640625 0 -249.26069641113281
v -147.8114013671875 0 -308.15884399414062
v -5.9448165893554687 0 -230.06803894042969
v -70.786102294921875 0 -112.27173614501953
v -212.65269470214844 0 -190.362548828125
v -180.2320556640625 0 -249.26069641113281
v -38.365459442138672 0 -171.16989135742187
vt 1 0.5
vt 0 0.5
vt 0 0
vt 1 0
vt 1 1
vt 0 1
vt 0 0.5
vt 1 0.5
vn 0 -1 0
vn 0 -1 0
vn 0 -1 0
vn 0 -1 0
vn 0 -1 0
vn 0 -1 0
vn 0 -1 0
vn 0 -1 0
f 10/10/10 11/11/11 12/12/12 13/13/13
f 14/14/14 15/15/15 16/16/16 17/17/17
usemtl diffuse_0
v -491.99990844726562 0 297.38394165039062
v -495.52767944335937 0 323.53289794921875
v -486.17108154296875 0 306.53482055664062
v -485.4248046875 0 301.00320434570312
v -498.57501220703125 0 293.7646484375
v -504.88430786132812 0 340.53094482421875
v -495.52767944335937 0 323.53289794921875
v -491.99990844726562 0 297.38394165039062
vt 1 0.5
vt 0 0.5
vt 0 0
vt 1 0
vt 1 1
vt 0 1
vt 0 0.5
vt 1 0.5
vn 0 1 0
vn 0 1 0
vn 0 1 0
vn 0 1 0
vn 0 1 0
vn 0 1 0
vn 0 1 0
vn 0 1 0
f 18/18/18 19/19/19 20/20/20 21/21/21
f 22/22/22 23/23/23 24/24/24 25/25/25
