# Rhino

mtllib parks_00203.mtl
usemtl diffuse_0
v -462.44668579101562 0 130.68424987792969
v -422.13494873046875 0 152.87396240234375
v -433.77154541015625 0 174.0140380859375
v -463.01681518554687 0 134.91009521484375
vt 1 1
vt 0 1
vt 0 0
vt 1 0
vn 0 -1 0
vn 0 -1 0
vn 0 -1 0
vn 0 -1 0
f 1/1/1 2/2/2 3/3/3 4/4/4
usemtl diffuse_0
v -75.608291625976563 0 -103.51132202148437
v -96.994369506835938 0 -115.28334808349609
v -57.400531768798828 0 -136.58912658691406
vt 0 1
vt 0 0
vt 1 0
vn 0 -1 0
vn 0 -1 0
vn 0 -1 0
f 5/5/5 6/6/6 7/7/7
usemtl diffuse_0
v -27.522441864013672 0 -221.8331298828125
v -166.40057373046875 0 -311.71527099609375
v -154.90020751953125 0 -332.60781860351562
v -11.753982543945313 0 -253.81260681152344
v -43.290901184082031 0 -189.85365295410156
v -177.90095520019531 0 -290.82269287109375
v -166.40057373046875 0 -311.71527099609375
v -27.522441864013672 0 -221.8331298828125
vt 1 0.5
vt 0 0.5
vt 0 0
vt 1 0
vt 1 1
vt 0 1
vt 0 0.5
vt 1 0.5
vn 0 -1 0
vn 0 -1 0
vn 0 -1 0
vn 0 -1 0
vn 0 -1 0
vn 0 -1 0
vn 0 -1 0
vn 0 -1 0
f 8/8/8 9/9/9 10/10/10 11/11/11
f 12/12/12 13/13/13 14/14/14 15/15/15
usemtl diffuse_0
v -130.37680053710937 0 -133.65879821777344
v -233.24374389648437 0 -190.28218078613281
v -217.02867126464844 0 -219.73989868164062
v -130.37680053710937 0 -133.65879821777344
v -172.61470031738281 0 -246.85595703125
v -67.098197937011719 0 -167.70954895019531
v -217.02867126464844 0 -219.73989868164062
v -172.61470031738281 0 -246.85595703125
v -130.37680053710937 0 -133.65879821777344
vt 0.79439741373062134 0.79291218519210815
vt 0.040315628051757813 0.99019604921340942
vt 0.0098039219155907631 0.59035253524780273
vt 0.79439741373062134 0.79291218519210815
vt 0.13471311330795288 0.0098039219155907631
vt 0.99019604921340942 0.0098039219155907631
vt 0.0098039219155907631 0.59035253524780273
vt 0.13471311330795288 0.0098039219155907631
vt 0.79439741373062134 0.79291218519210815
vn 0 -1 0
vn 0 -1 0
vn 0 -1 0
vn 0 -1 0
vn 0 -1 0
vn 0 -1 0
vn 0 -1 0
vn 0 -1 0
vn 0 -1 0
f 16/16/16 17/17/17 18/18/18
f 19/19/19 20/20/20 21/21/21
f 22/22/22 23/23/23 24/24/24
