# Rhino

mtllib parks_00059.mtl
usemtl diffuse_0
v -503.25689697265625 0 383.2891845703125
v -510.99346923828125 0 390.74462890625
v -498.46258544921875 0 397.64230346679687
v -498.46258544921875 0 397.64230346679687
v -495.52035522460937 0 375.833740234375
v -503.25689697265625 0 383.2891845703125
vt 0.5 0.5
vt 0 1
vt 0 0
vt 0 0
vt 1 0
vt 0.5 0.5
vn 0 1 0
vn 0 1 0
vn 0 1 0
vn 0 1 0
vn 0 1 0
vn 0 1 0
f 1/1/1 2/2/2 3/3/3
f 4/4/4 5/5/5 6/6/6
usemtl diffuse_0
v -61.109233856201172 0 -280.98031616210937
v -23.333366394042969 0 -260.18649291992187
v -32.760177612304688 0 -230.56655883789062
v -32.760177612304688 0 -230.56655883789062
v -94.572898864746094 0 -266.43783569335937
v -61.109233856201172 0 -280.98031616210937
v -94.572898864746094 0 -266.43783569335937
v -88.342750549316406 0 -183.14915466308594
v -125.51315307617187 0 -252.99205017089844
v -42.186988830566406 0 -200.94659423828125
v -94.572898864746094 0 -266.43783569335937
v -32.760177612304688 0 -230.56655883789062
v -88.342750549316406 0 -183.14915466308594
v -42.186988830566406 0 -200.94659423828125
v -51.613800048828125 0 -171.32664489746094
v -125.51315307617187 0 -252.99205017089844
v -88.342750549316406 0 -183.14915466308594
v -125.07170104980469 0 -194.97164916992187
v -161.76969909667969 0 -206.78425598144531
v -156.45339965820312 0 -239.54624938964844
v -125.07170104980469 0 -194.97164916992187
v -125.07170104980469 0 -194.97164916992187
v -156.45339965820312 0 -239.54624938964844
v -125.51315307617187 0 -252.99205017089844
v -88.342750549316406 0 -183.14915466308594
v -94.572898864746094 0 -266.43783569335937
v -42.186988830566406 0 -200.94659423828125
vt 0.0098039219155907631 0.35372209548950195
vt 0.090449154376983643 0.0098039219155907631
vt 0.39036479592323303 0.0098039219155907631
vt 0.39036479592323303 0.0098039219155907631
vt 0.24142941832542419 0.57711011171340942
vt 0.0098039219155907631 0.35372209548950195
vt 0.24142941832542419 0.57711011171340942
vt 0.9889715313911438 0.32349234819412231
vt 0.45558798313140869 0.78365308046340942
vt 0.69028043746948242 0.0098039219155907631
vt 0.24142941832542419 0.57711011171340942
vt 0.39036479592323303 0.0098039219155907631
vt 0.9889715313911438 0.32349234819412231
vt 0.69028043746948242 0.0098039219155907631
vt 0.99019604921340942 0.0098039219155907631
vt 0.45558798313140869 0.78365308046340942
vt 0.9889715313911438 0.32349234819412231
vt 0.9877469539642334 0.63718080520629883
vt 0.9865228533744812 0.95060503482818604
vt 0.6697465181350708 0.99019604921340942
vt 0.9877469539642334 0.63718080520629883
vt 0.9877469539642334 0.63718080520629883
vt 0.6697465181350708 0.99019604921340942
vt 0.45558798313140869 0.78365308046340942
vt 0.9889715313911438 0.32349234819412231
vt 0.24142941832542419 0.57711011171340942
vt 0.69028043746948242 0.0098039219155907631
vn 0 -1 0
vn 0 -1 0
vn 0 -1 0
vn 0 -1 0
vn 0 -1 0
vn 0 -1 0
vn 0 -1 0
vn 0 -1 0
vn 0 -1 0
vn 0 -1 0
vn 0 -1 0
vn 0 -1 0
vn 0 -1 0
vn 0 -1 0
vn 0 -1 0
vn 0 -1 0
vn 0 -1 0
vn 0 -1 0
vn 0 -1 0
vn 0 -1 0
vn 0 -1 0
vn 0 -1 0
vn 0 -1 0
vn 0 -1 0
vn 0 -1 0
vn 0 -1 0
vn 0 -1 0
f 7/7/7 8/8/8 9/9/9
f 10/10/10 11/11/11 12/12/12
f 13/13/13 14/14/14 15/15/15
f 16/16/16 17/17/17 18/18/18
f 19/19/19 20/20/20 21/21/21
f 22/22/22 23/23/23 24/24/24
f 25/25/25 26/26/26 27/27/27
f 28/28/28 29/29/29 30/30/30
f 31/31/31 32/32/32 33/33/33
usemtl diffuse_0
v -233.24374389648437 0 -190.28218078613281
v -230.79176330566406 0 -194.73664855957031
v -214.34213256835937 0 -188.13034057617187
v -214.34213256835937 0 -188.13034057617187
v -218.14643859863281 0 -181.97183227539062
v -233.24374389648437 0 -190.28218078613281
v -218.14643859863281 0 -181.97183227539062
v -214.34213256835937 0 -188.13034057617187
v -197.89250183105469 0 -181.5240478515625
v -218.14643859863281 0 -181.97183227539062
v -199.06309509277344 0 -172.86904907226562
v -203.04914855957031 0 -173.66148376464844
v -199.23953247070313 0 -171.56446838378906
v -199.06309509277344 0 -172.86904907226562
v -197.89250183105469 0 -181.5240478515625
v -197.89250183105469 0 -181.5240478515625
v -199.06309509277344 0 -172.86904907226562
v -218.14643859863281 0 -181.97183227539062
vt 0.0098039219155907631 0.5176389217376709
vt 0.025459114462137222 0.0098039219155907631
vt 0.47650876641273499 0.0098039219155907631
vt 0.47650876641273499 0.0098039219155907631
vt 0.44508147239685059 0.72744631767272949
vt 0.0098039219155907631 0.5176389217376709
vt 0.44508147239685059 0.72744631767272949
vt 0.47650876641273499 0.0098039219155907631
vt 0.92755842208862305 0.0098039219155907631
vt 0.44508147239685059 0.72744631767272949
vt 0.98199087381362915 0.86177712678909302
vt 0.8803589940071106 0.93725371360778809
vt 0.99019604921340942 0.99019604921340942
vt 0.98199087381362915 0.86177712678909302
vt 0.92755842208862305 0.0098039219155907631
vt 0.92755842208862305 0.0098039219155907631
vt 0.98199087381362915 0.86177712678909302
vt 0.44508147239685059 0.72744631767272949
vn 0 -1 0
vn 0 -1 0
vn 0 -1 0
vn 0 -1 0
vn 0 -1 0
vn 0 -1 0
vn 0 -1 0
vn 0 -1 0
vn 0 -1 0
vn 0 -1 0
vn 0 -1 0
vn 0 -1 0
vn 0 -1 0
vn 0 -1 0
vn 0 -1 0
vn 0 -1 0
vn 0 -1 0
vn 0 -1 0
f 34/34/34 35/35/35 36/36/36
f 37/37/37 38/38/38 39/39/39
f 40/40/40 41/41/41 42/42/42
f 43/43/43 44/44/44 45/45/45
f 46/46/46 47/47/47 48/48/48
f 49/49/49 50/50/50 51/51/51
usemtl diffuse_0
v -90.977546691894531 0 -150.43815612792969
v -92.004447937011719 0 -146.50885009765625
v -122.71600341796875 0 -156.39445495605469
v -121.97820281982422 0 -158.71424865722656
v -59.976898193359375 0 -142.16204833984375
v -61.292900085449219 0 -136.62324523925781
v -92.004447937011719 0 -146.50885009765625
v -90.977546691894531 0 -150.43815612792969
vt 1 0.5
vt 0 0.5
vt 0 0
vt 1 0
vt 1 1
vt 0 1
vt 0 0.5
vt 1 0.5
vn 0 -1 0
vn 0 -1 0
vn 0 -1 0
vn 0 -1 0
vn 0 -1 0
vn 0 -1 0
vn 0 -1 0
vn 0 -1 0
f 52/52/52 53/53/53 54/54/54 55/55/55
f 56/56/56 57/57/57 58/58/58 59/59/59
usemtl diffuse_0
v -169.14292907714844 0 -155.36373901367188
v -169.26347351074219 0 -155.06407165527344
v -169.18421936035156 0 -155.53288269042969
v -169.09696960449219 0 -155.7044677734375
v -169.18421936035156 0 -155.53288269042969
v -169.10494995117187 0 -156.00167846679687
v -169.26347351074219 0 -155.06407165527344
v -169.14292907714844 0 -155.36373901367188
v -169.18890380859375 0 -155.02301025390625
v -169.18421936035156 0 -155.53288269042969
v -169.09696960449219 0 -155.7044677734375
v -169.14292907714844 0 -155.36373901367188
v -169.09696960449219 0 -155.7044677734375
v -169.10494995117187 0 -156.00167846679687
v -169.05101013183594 0 -156.04519653320312
v -168.95907592773437 0 -156.72665405273437
v -169.02568054199219 0 -156.47048950195312
v -168.9464111328125 0 -156.93930053710937
v -168.91311645507812 0 -157.06736755371094
v -168.9464111328125 0 -156.93930053710937
v -168.86715698242187 0 -157.40809631347656
v -169.05101013183594 0 -156.04519653320312
v -169.10494995117187 0 -156.00167846679687
v -169.00503540039062 0 -156.38592529296875
v -168.9464111328125 0 -156.93930053710937
v -168.91311645507812 0 -157.06736755371094
v -168.95907592773437 0 -156.72665405273437
v -169.00503540039062 0 -156.38592529296875
v -169.02568054199219 0 -156.47048950195312
v -168.95907592773437 0 -156.72665405273437
v -169.02568054199219 0 -156.47048950195312
v -169.00503540039062 0 -156.38592529296875
v -169.10494995117187 0 -156.00167846679687
vt 0.1428571492433548 0.8571428656578064
vt 0 0
vt 0.20000000298023224 0
vt 0.28571429848670959 0.71428573131561279
vt 0.20000000298023224 0
vt 0.40000000596046448 0
vt 0 0
vt 0.1428571492433548 0.8571428656578064
vt 0 1
vt 0.20000000298023224 0
vt 0.28571429848670959 0.71428573131561279
vt 0.1428571492433548 0.8571428656578064
vt 0.28571429848670959 0.71428573131561279
vt 0.40000000596046448 0
vt 0.4285714328289032 0.57142859697341919
vt 0.71428573131561279 0.28571429848670959
vt 0.60000002384185791 0
vt 0.80000001192092896 0
vt 0.8571428656578064 0.1428571492433548
vt 0.80000001192092896 0
vt 1 0
vt 0.4285714328289032 0.57142859697341919
vt 0.40000000596046448 0
vt 0.57142859697341919 0.4285714328289032
vt 0.80000001192092896 0
vt 0.8571428656578064 0.1428571492433548
vt 0.71428573131561279 0.28571429848670959
vt 0.57142859697341919 0.4285714328289032
vt 0.60000002384185791 0
vt 0.71428573131561279 0.28571429848670959
vt 0.60000002384185791 0
vt 0.57142859697341919 0.4285714328289032
vt 0.40000000596046448 0
vn 0 -1 0
vn 0 -1 0
vn 0 -1 0
vn 0 -1 0
vn 0 -1 0
vn 0 -1 0
vn 0 -1 0
vn 0 -1 0
vn 0 -1 0
vn 0 -1 0
vn 0 -1 0
vn 0 -1 0
vn 0 -1 0
vn 0 -1 0
vn 0 -1 0
vn 0 -1 0
vn 0 -1 0
vn 0 -1 0
vn 0 -1 0
vn 0 -1 0
vn 0 -1 0
vn 0 -1 0
vn 0 -1 0
vn 0 -1 0
vn 0 -1 0
vn 0 -1 0
vn 0 -1 0
vn 0 -1 0
vn 0 -1 0
vn 0 -1 0
vn 0 -1 0
vn 0 -1 0
vn 0 -1 0
f 60/60/60 61/61/61 62/62/62
f 63/63/63 64/64/64 65/65/65
f 66/66/66 67/67/67 68/68/68
f 69/69/69 70/70/70 71/71/71
f 72/72/72 73/73/73 74/74/74
f 75/75/75 76/76/76 77/77/77
f 78/78/78 79/79/79 80/80/80
f 81/81/81 82/82/82 83/83/83
f 84/84/84 85/85/85 86/86/86
f 87/87/87 88/88/88 89/89/89
f 90/90/90 91/91/91 92/92/92
usemtl diffuse_0
v -478.4718017578125 0 249.46609497070312
v -470.25210571289062 0 240.28775024414062
v -479.50018310546875 0 257.088623046875
v -470.25210571289062 0 240.28775024414062
v -478.4718017578125 0 249.46609497070312
v -477.44345092773437 0 241.84358215332031
vt 0.5 0
vt 0 1
vt 0 0
vt 0 1
vt 0.5 0
vt 1 0
vn 0 -1 0
vn 0 -1 0
vn 0 -1 0
vn 0 -1 0
vn 0 -1 0
vn 0 -1 0
f 93/93/93 94/94/94 95/95/95
f 96/96/96 97/97/97 98/98/98
usemtl diffuse_0
v -150.74580383300781 0 -291.50698852539062
v -107.46970367431641 0 -301.00799560546875
v -107.73359680175781 0 -299.97103881835937
v -151.75869750976562 0 -280.83883666992187
v -149.73289489746094 0 -302.17514038085937
v -107.20580291748047 0 -302.04495239257812
v -107.46970367431641 0 -301.00799560546875
v -150.74580383300781 0 -291.50698852539062
vt 1 0.5
vt 0 0.5
vt 0 0
vt 1 0
vt 1 1
vt 0 1
vt 0 0.5
vt 1 0.5
vn 0 -1 0
vn 0 -1 0
vn 0 -1 0
vn 0 -1 0
vn 0 -1 0
vn 0 -1 0
vn 0 -1 0
vn 0 -1 0
f 99/99/99 100/100/100 101/101/101 102/102/102
f 103/103/103 104/104/104 105/105/105 106/106/106
usemtl diffuse_0
v -184.40280151367187 0 -275.5718994140625
v -184.79739379882812 0 -271.41604614257812
v -187.76715087890625 0 -272.89889526367188
v -187.76715087890625 0 -272.89889526367188
v -184.00820922851562 0 -279.72772216796875
v -184.40280151367187 0 -275.5718994140625
vt 0.5 0.5
vt 0 1
vt 0 0
vt 0 0
vt 1 0
vt 0.5 0.5
vn 0 -1 0
vn 0 -1 0
vn 0 -1 0
vn 0 -1 0
vn 0 -1 0
vn 0 -1 0
f 107/107/107 108/108/108 109/109/109
f 110/110/110 111/111/111 112/112/112
usemtl diffuse_0
v -75.608291625976563 0 -103.51132202148437
v -124.43994140625 0 -130.39083862304687
v -68.964614868164062 0 -115.58080291748047
vt 0 1
vt 0 0
vt 1 0
vn 0 -1 0
vn 0 -1 0
vn 0 -1 0
f 113/113/113 114/114/114 115/115/115
usemtl diffuse_0
v -141.55693054199219 0 -325.26296997070312
v -147.24346923828125 0 -328.39315795898437
v -147.5389404296875 0 -325.28131103515625
v -143.84640502929687 0 -322.1572265625
v -147.5389404296875 0 -325.28131103515625
v -147.83439636230469 0 -322.16946411132812
v -139.8583984375 0 -322.14501953125
v -135.87039184570312 0 -322.1328125
v -141.55693054199219 0 -325.26296997070312
v -139.8583984375 0 -322.14501953125
v -147.5389404296875 0 -325.28131103515625
v -143.84640502929687 0 -322.1572265625
v -141.55693054199219 0 -325.26296997070312
v -147.5389404296875 0 -325.28131103515625
v -139.8583984375 0 -322.14501953125
vt 0.5 0
vt 0 0
vt 0 0.5
vt 0.3333333432674408 0.66666668653488159
vt 0 0.5
vt 0 1
vt 0.66666668653488159 0.3333333432674408
vt 1 0
vt 0.5 0
vt 0.66666668653488159 0.3333333432674408
vt 0 0.5
vt 0.3333333432674408 0.66666668653488159
vt 0.5 0
vt 0 0.5
vt 0.66666668653488159 0.3333333432674408
vn 0 1 0
vn 0 1 0
vn 0 1 0
vn 0 1 0
vn 0 1 0
vn 0 1 0
vn 0 1 0
vn 0 1 0
vn 0 1 0
vn 0 1 0
vn 0 1 0
vn 0 1 0
vn 0 1 0
vn 0 1 0
vn 0 1 0
f 116/116/116 117/117/117 118/118/118
f 119/119/119 120/120/120 121/121/121
f 122/122/122 123/123/123 124/124/124
f 125/125/125 126/126/126 127/127/127
f 128/128/128 129/129/129 130/130/130
usemtl diffuse_0
v -538.10595703125 0 363.55694580078125
v -533.0831298828125 0 373.1463623046875
v -536.67529296875 0 376.60800170898437
v -543.28668212890625 0 372.96875
vt 1 1
vt 1 0
vt 0 0
vt 0 1
vn 0 -1 0
vn 0 -1 0
vn 0 -1 0
vn 0 -1 0
f 131/131/131 132/132/132 133/133/133 134/134/134
usemtl diffuse_0
v -491.71902465820312 0 307.23648071289062
v -497.74087524414062 0 303.9217529296875
v -509.99432373046875 0 326.18243408203125
v -503.97250366210937 0 329.49716186523437
v -517.36517333984375 0 342.80874633789062
v -509.99432373046875 0 326.18243408203125
v -516.607177734375 0 324.5003662109375
v -497.74087524414062 0 303.9217529296875
v -498.05368041992187 0 290.79449462890625
v -516.607177734375 0 324.5003662109375
v -509.99432373046875 0 326.18243408203125
v -503.97250366210937 0 329.49716186523437
v -517.36517333984375 0 342.80874633789062
v -512.077392578125 0 352.90396118164062
v -509.99432373046875 0 326.18243408203125
v -517.36517333984375 0 342.80874633789062
v -503.97250366210937 0 329.49716186523437
v -489.49029541015625 0 331.1375732421875
v -503.97250366210937 0 329.49716186523437
v -512.077392578125 0 352.90396118164062
v -497.74087524414062 0 303.9217529296875
v -479.50018310546875 0 257.088623046875
v -498.05368041992187 0 290.79449462890625
v -489.49029541015625 0 331.1375732421875
v -491.71902465820312 0 307.23648071289062
v -503.97250366210937 0 329.49716186523437
v -479.50018310546875 0 257.088623046875
v -497.74087524414062 0 303.9217529296875
v -491.71902465820312 0 307.23648071289062
v -479.50018310546875 0 257.088623046875
v -491.71902465820312 0 307.23648071289062
v -489.49029541015625 0 331.1375732421875
vt 0.5 0.5
vt 0.5 0.25
vt 0.25 0.25
vt 0.25 0.5
vt 0.071727395057678223 0.30674940347671509
vt 0.25 0.25
vt 0.23312400281429291 0.0098039219155907631
vt 0.5 0.25
vt 0.61166006326675415 0.0098039219155907631
vt 0.23312400281429291 0.0098039219155907631
vt 0.25 0.25
vt 0.25 0.5
vt 0.071727395057678223 0.30674940347671509
vt 0.0098039219155907631 0.65227979421615601
vt 0.25 0.25
vt 0.071727395057678223 0.30674940347671509
vt 0.25 0.5
vt 0.30457013845443726 0.99019604921340942
vt 0.25 0.5
vt 0.0098039219155907631 0.65227979421615601
vt 0.5 0.25
vt 0.99019604921340942 0.0098039219155907631
vt 0.61166006326675415 0.0098039219155907631
vt 0.30457013845443726 0.99019604921340942
vt 0.5 0.5
vt 0.25 0.5
vt 0.99019604921340942 0.0098039219155907631
vt 0.5 0.25
vt 0.5 0.5
vt 0.99019604921340942 0.0098039219155907631
vt 0.5 0.5
vt 0.30457013845443726 0.99019604921340942
vn 0 1 0
vn 0 1 0
vn 0 1 0
vn 0 1 0
vn 0 1 0
vn 0 1 0
vn 0 1 0
vn 0 1 0
vn 0 1 0
vn 0 1 0
vn 0 1 0
vn 0 1 0
vn 0 1 0
vn 0 1 0
vn 0 1 0
vn 0 1 0
vn 0 1 0
vn 0 1 0
vn 0 1 0
vn 0 1 0
vn 0 1 0
vn 0 1 0
vn 0 1 0
vn 0 1 0
vn 0 1 0
vn 0 1 0
vn 0 1 0
vn 0 1 0
vn 0 1 0
vn 0 1 0
vn 0 1 0
vn 0 1 0
f 135/135/135 136/136/136 137/137/137 138/138/138
f 139/139/139 140/140/140 141/141/141
f 142/142/142 143/143/143 144/144/144 145/145/145
f 146/146/146 147/147/147 148/148/148
f 149/149/149 150/150/150 151/151/151
f 152/152/152 153/153/153 154/154/154
f 155/155/155 156/156/156 157/157/157
f 158/158/158 159/159/159 160/160/160
f 161/161/161 162/162/162 163/163/163
f 164/164/164 165/165/165 166/166/166
