# Rhino

mtllib shanghai_water.mtl
usemtl Material_1
v -523.47247314453125 -5.651914119720459 54.0745849609375
v -576.5953369140625 -5.651914119720459 -55.182342529296875
v -750 -5.651914119720459 451.56466674804687
v -584.4814453125 -5.651914119720459 -159.12596130371094
v -750 -5.651914119720459 451.56466674804687
v -576.5953369140625 -5.651914119720459 -55.182342529296875
v -575.2239990234375 -5.651914119720459 -248.05119323730469
v -750 -5.651914119720459 -750
v -584.4814453125 -5.651914119720459 -159.12596130371094
v -750 -5.651914119720459 451.56466674804687
v -584.4814453125 -5.651914119720459 -159.12596130371094
v -750 -5.651914119720459 -750
v -750 -5.651914119720459 -750
v -575.2239990234375 -5.651914119720459 -248.05119323730469
v -536.11822509765625 -5.651914119720459 -346.54739379882812
v -473.2890625 -5.651914119720459 -418.30758666992187
v -750 -5.651914119720459 -750
v -536.11822509765625 -5.651914119720459 -346.54739379882812
v -647.9224853515625 -5.651914119720459 571.23101806640625
v -523.47247314453125 -5.651914119720459 54.0745849609375
v -750 -5.651914119720459 451.56466674804687
v -523.47247314453125 -5.651914119720459 54.0745849609375
v -647.9224853515625 -5.651914119720459 571.23101806640625
v -378.02285766601562 -5.651914119720459 248.55586242675781
v -462.86013793945312 -5.651914119720459 750
v -378.02285766601562 -5.651914119720459 248.55586242675781
v -647.9224853515625 -5.651914119720459 571.23101806640625
v -462.86013793945312 -5.651914119720459 750
v 203.48490905761719 -5.651914119720459 750
v -378.02285766601562 -5.651914119720459 248.55586242675781
v -750 -5.651914119720459 -750
v -473.2890625 -5.651914119720459 -418.30758666992187
v -400.07876586914062 -5.651914119720459 -480.349853515625
v -750 -5.651914119720459 -750
v -192.28157043457031 -5.651914119720459 -608.65130615234375
v 93.680999755859375 -5.651914119720459 -750
v -750 -5.651914119720459 -750
v -400.07876586914062 -5.651914119720459 -480.349853515625
v -192.28157043457031 -5.651914119720459 -608.65130615234375
vt 0.24272403120994568 0.46465712785720825
vt 0.18810202181339264 0.53606688976287842
vt 0.0098039219155907631 0.20485968887805939
vt 0.17999337613582611 0.60400390625
vt 0.0098039219155907631 0.20485968887805939
vt 0.18810202181339264 0.53606688976287842
vt 0.18951207399368286 0.66212499141693115
vt 0.0098039219155907631 0.99019604921340942
vt 0.17999337613582611 0.60400390625
vt 0.0098039219155907631 0.20485968887805939
vt 0.17999337613582611 0.60400390625
vt 0.0098039219155907631 0.99019604921340942
vt 0.0098039219155907631 0.99019604921340942
vt 0.18951207399368286 0.66212499141693115
vt 0.22972144186496735 0.72650158405303955
vt 0.2943236231803894 0.77340364456176758
vt 0.0098039219155907631 0.99019604921340942
vt 0.22972144186496735 0.72650158405303955
vt 0.1147620677947998 0.12664639949798584
vt 0.24272403120994568 0.46465712785720825
vt 0.0098039219155907631 0.20485968887805939
vt 0.24272403120994568 0.46465712785720825
vt 0.1147620677947998 0.12664639949798584
vt 0.39227822422981262 0.33754518628120422
vt 0.30504685640335083 0.0098039219155907631
vt 0.39227822422981262 0.33754518628120422
vt 0.1147620677947998 0.12664639949798584
vt 0.30504685640335083 0.0098039219155907631
vt 0.99019604921340942 0.0098039219155907631
vt 0.39227822422981262 0.33754518628120422
vt 0.0098039219155907631 0.99019604921340942
vt 0.2943236231803894 0.77340364456176758
vt 0.36959990859031677 0.81395417451858521
vt 0.0098039219155907631 0.99019604921340942
vt 0.58326113224029541 0.89781129360198975
vt 0.87729352712631226 0.99019604921340942
vt 0.0098039219155907631 0.99019604921340942
vt 0.36959990859031677 0.81395417451858521
vt 0.58326113224029541 0.89781129360198975
vn 0 1 0
vn 0 1 0
vn 0 1 0
vn 0 1 0
vn 0 1 0
vn 0 1 0
vn 0 1 0
vn 0 1 0
vn 0 1 0
vn 0 1 0
vn 0 1 0
vn 0 1 0
vn 0 1 0
vn 0 1 0
vn 0 1 0
vn 0 1 0
vn 0 1 0
vn 0 1 0
vn 0 1 0
vn 0 1 0
vn 0 1 0
vn 0 1 0
vn 0 1 0
vn 0 1 0
vn 0 1 0
vn 0 1 0
vn 0 1 0
vn 0 1 0
vn 0 1 0
vn 0 1 0
vn 0 1 0
vn 0 1 0
vn 0 1 0
vn 0 1 0
vn 0 1 0
vn 0 1 0
vn 0 1 0
vn 0 1 0
vn 0 1 0
f 1/1/1 2/2/2 3/3/3
f 4/4/4 5/5/5 6/6/6
f 7/7/7 8/8/8 9/9/9
f 10/10/10 11/11/11 12/12/12
f 13/13/13 14/14/14 15/15/15
f 16/16/16 17/17/17 18/18/18
f 19/19/19 20/20/20 21/21/21
f 22/22/22 23/23/23 24/24/24
f 25/25/25 26/26/26 27/27/27
f 28/28/28 29/29/29 30/30/30
f 31/31/31 32/32/32 33/33/33
f 34/34/34 35/35/35 36/36/36
f 37/37/37 38/38/38 39/39/39
