# Rhino

mtllib shanghai_border.mtl
usemtl Material_1
v 750 -31 -750
v 750 -31 750
v -750 -31 750
v -750 -31 -750
vt 1 1
vt 1 0
vt 0 0
vt 0 1
vn 0 -1 0
vn 0 -1 0
vn 0 -1 0
vn 0 -1 0
f 1/1/1 2/2/2 3/3/3 4/4/4
usemtl Material_1
v 93.680999755859375 -5.651914119720459 -750
v -750 -31 -750
v -750 -5.651914119720459 -750
v 750 -31 -750
v 93.680999755859375 -5.651914119720459 -750
v 750 0 -750
v 93.680999755859375 0 -750
v 750 0 -750
v 93.680999755859375 -5.651914119720459 -750
v -750 -31 -750
v 93.680999755859375 -5.651914119720459 -750
v 750 -31 -750
v 203.48490905761719 -5.651914119720459 750
v 750 0 750
v 203.48490905761719 0 750
v -750 -31 750
v 750 -31 750
v 203.48490905761719 -5.651914119720459 750
v -462.86013793945312 -5.651914119720459 750
v 750 0 750
v 203.48490905761719 -5.651914119720459 750
v 750 -31 750
v -462.86013793945312 -5.651914119720459 750
v -462.86013793945312 0 750
v -750 0 750
v -750 0 750
v -750 -31 750
v -462.86013793945312 -5.651914119720459 750
v 750 -31 -750
v 750 0 -750
v 750 0 750
v 750 -31 750
v -750 -5.651914119720459 451.56466674804687
v -750 -31 750
v -750 0 750
v -750 0 451.56466674804687
v -750 -5.651914119720459 451.56466674804687
v -750 0 750
v -750 -31 -750
v -750 -5.651914119720459 451.56466674804687
v -750 -5.651914119720459 -750
v -750 -31 750
v -750 -5.651914119720459 451.56466674804687
v -750 -31 -750
vt 0.57048958539962769 0.0036916485987603664
vt 0.020248204469680786 0.020248204469680786
vt 0.020248204469680786 0.0036916485987603664
vt 0.99853515625 0.020248204469680786
vt 0.57048958539962769 0.0036916485987603664
vt 0.99853515625 0
vt 0.57048958539962769 0
vt 0.99853515625 0
vt 0.57048958539962769 0.0036916485987603664
vt 0.020248204469680786 0.020248204469680786
vt 0.57048958539962769 0.0036916485987603664
vt 0.99853515625 0.020248204469680786
vt 0.37668061256408691 0.65685951709747314
vt 0.020248204469680786 0.65316784381866455
vt 0.37668061256408691 0.65316784381866455
vt 0.99853515625 0.67341607809066772
vt 0.020248204469680786 0.67341607809066772
vt 0.37668061256408691 0.65685951709747314
vt 0.81126505136489868 0.65685951709747314
vt 0.020248204469680786 0.65316784381866455
vt 0.37668061256408691 0.65685951709747314
vt 0.020248204469680786 0.67341607809066772
vt 0.81126505136489868 0.65685951709747314
vt 0.81126505136489868 0.65316784381866455
vt 0.99853515625 0.65316784381866455
vt 0.99853515625 0.65316784381866455
vt 0.99853515625 0.67341607809066772
vt 0.81126505136489868 0.65685951709747314
vt 0 0
vt 0.018783360719680786 0
vt 0.018783360719680786 0.9782869815826416
vt 0 0.9782869815826416
vt 0.21488513052463531 0.33027559518814087
vt 0.020248204469680786 0.34683212637901306
vt 0.020248204469680786 0.32658392190933228
vt 0.21488513052463531 0.32658392190933228
vt 0.21488513052463531 0.33027559518814087
vt 0.020248204469680786 0.32658392190933228
vt 0.99853515625 0.34683212637901306
vt 0.21488513052463531 0.33027559518814087
vt 0.99853515625 0.33027559518814087
vt 0.020248204469680786 0.34683212637901306
vt 0.21488513052463531 0.33027559518814087
vt 0.99853515625 0.34683212637901306
vn 0 0 -1
vn 0 0 -1
vn 0 0 -1
vn 0 0 -1
vn 0 0 -1
vn 0 0 -1
vn 0 0 -1
vn 0 0 -1
vn 0 0 -1
vn 0 0 -1
vn 0 0 -1
vn 0 0 -1
vn 0 0 1
vn 0 0 1
vn 0 0 1
vn 0 0 1
vn 0 0 1
vn 0 0 1
vn 0 0 1
vn 0 0 1
vn 0 0 1
vn 0 0 1
vn 0 0 1
vn 0 0 1
vn 0 0 1
vn 0 0 1
vn 0 0 1
vn 0 0 1
vn 1 0 0
vn 1 0 0
vn 1 0 0
vn 1 0 0
vn -1 0 0
vn -1 0 0
vn -1 0 0
vn -1 0 0
vn -1 0 0
vn -1 0 0
vn -1 0 0
vn -1 0 0
vn -1 0 0
vn -1 0 0
vn -1 0 0
vn -1 0 0
f 5/5/5 6/6/6 7/7/7
f 8/8/8 9/9/9 10/10/10
f 11/11/11 12/12/12 13/13/13
f 14/14/14 15/15/15 16/16/16
f 17/17/17 18/18/18 19/19/19
f 20/20/20 21/21/21 22/22/22 23/23/23
f 24/24/24 25/25/25 26/26/26
f 27/27/27 28/28/28 29/29/29
f 30/30/30 31/31/31 32/32/32
f 33/33/33 34/34/34 35/35/35 36/36/36
f 37/37/37 38/38/38 39/39/39
f 40/40/40 41/41/41 42/42/42
f 43/43/43 44/44/44 45/45/45
f 46/46/46 47/47/47 48/48/48
